<svg width="154" height="34" viewBox="0 0 154 34" fill="none" xmlns="http://www.w3.org/2000/svg">
<path d="M10.7267 25.9983L8.58008 22.2803L11.7304 16.8389L13.7322 20.3064L25.5496 20.3001L22.1964 26.0497L10.7267 25.9983Z" fill="#335EEA"/>
<path d="M27.6607 16.6081L25.5142 20.326L19.2266 20.3186L21.2286 16.8511L15.3145 6.62012L21.9704 6.64932L27.6607 16.6081Z" fill="#829FFF"/>
<path d="M11.0596 6.60059H15.3528L18.4901 12.0496L14.4861 12.0494L8.58297 22.2868L5.28027 16.508L11.0596 6.60059Z" fill="#FED81D"/>
<path d="M40.0512 10.8999C41.3052 10.8999 42.3887 11.1364 43.3017 11.6094C44.2257 12.0714 44.9297 12.7369 45.4137 13.6059C45.9087 14.4749 46.1562 15.4979 46.1562 16.6749C46.1562 17.8519 45.9087 18.8749 45.4137 19.7439C44.9297 20.6019 44.2257 21.2619 43.3017 21.7239C42.3887 22.1749 41.3052 22.4004 40.0512 22.4004H36.4707V10.8999H40.0512ZM40.0512 21.1629C41.5362 21.1629 42.6692 20.7724 43.4502 19.9914C44.2312 19.1994 44.6217 18.0939 44.6217 16.6749C44.6217 15.2449 44.2257 14.1284 43.4337 13.3254C42.6527 12.5224 41.5252 12.1209 40.0512 12.1209H37.9722V21.1629H40.0512ZM62.5907 10.8999L59.2577 22.4004H57.5747L54.9017 13.1439L52.1297 22.4004L50.4632 22.4169L47.2457 10.8999H48.8462L51.3542 20.6514L54.1262 10.8999H55.8092L58.4492 20.6184L60.9737 10.8999H62.5907ZM71.0319 19.8429H66.0159L65.0919 22.4004H63.5079L67.6659 10.9659H69.3984L73.5399 22.4004H71.9559L71.0319 19.8429ZM70.6029 18.6219L68.5239 12.8139L66.4449 18.6219H70.6029ZM86.8295 10.8999V12.1209H83.6945V22.4004H82.193V12.1209H79.0415V10.8999H86.8295ZM93.1657 13.1934C93.8477 13.1934 94.4637 13.3419 95.0137 13.6389C95.5637 13.9249 95.9927 14.3594 96.3007 14.9424C96.6197 15.5254 96.7792 16.2349 96.7792 17.0709V22.4004H95.2942V17.2854C95.2942 16.3834 95.0687 15.6959 94.6177 15.2229C94.1667 14.7389 93.5507 14.4969 92.7697 14.4969C91.9777 14.4969 91.3452 14.7444 90.8722 15.2394C90.4102 15.7344 90.1792 16.4549 90.1792 17.4009V22.4004H88.6777V10.1904H90.1792V14.6454C90.4762 14.1834 90.8832 13.8259 91.4002 13.5729C91.9282 13.3199 92.5167 13.1934 93.1657 13.1934ZM107.482 17.5329C107.482 17.8189 107.465 18.1214 107.432 18.4404H100.205C100.26 19.3314 100.563 20.0299 101.113 20.5359C101.674 21.0309 102.35 21.2784 103.142 21.2784C103.791 21.2784 104.33 21.1299 104.759 20.8329C105.199 20.5249 105.507 20.1179 105.683 19.6119H107.3C107.058 20.4809 106.574 21.1904 105.848 21.7404C105.122 22.2794 104.22 22.5489 103.142 22.5489C102.284 22.5489 101.514 22.3564 100.832 21.9714C100.161 21.5864 99.6334 21.0419 99.2484 20.3379C98.8634 19.6229 98.6709 18.7979 98.6709 17.8629C98.6709 16.9279 98.8579 16.1084 99.2319 15.4044C99.6059 14.7004 100.128 14.1614 100.799 13.7874C101.481 13.4024 102.262 13.2099 103.142 13.2099C104 13.2099 104.759 13.3969 105.419 13.7709C106.079 14.1449 106.585 14.6619 106.937 15.3219C107.3 15.9709 107.482 16.7079 107.482 17.5329ZM105.931 17.2194C105.931 16.6474 105.804 16.1579 105.551 15.7509C105.298 15.3329 104.952 15.0194 104.512 14.8104C104.083 14.5904 103.604 14.4804 103.076 14.4804C102.317 14.4804 101.668 14.7224 101.129 15.2064C100.601 15.6904 100.299 16.3614 100.222 17.2194H105.931ZM120.337 13.1934C121.041 13.1934 121.668 13.3419 122.218 13.6389C122.768 13.9249 123.203 14.3594 123.522 14.9424C123.841 15.5254 124 16.2349 124 17.0709V22.4004H122.515V17.2854C122.515 16.3834 122.29 15.6959 121.839 15.2229C121.399 14.7389 120.799 14.4969 120.04 14.4969C119.259 14.4969 118.638 14.7499 118.176 15.2559C117.714 15.7509 117.483 16.4714 117.483 17.4174V22.4004H115.998V17.2854C115.998 16.3834 115.772 15.6959 115.321 15.2229C114.881 14.7389 114.282 14.4969 113.523 14.4969C112.742 14.4969 112.12 14.7499 111.658 15.2559C111.196 15.7509 110.965 16.4714 110.965 17.4174V22.4004H109.464V13.3584H110.965V14.6619C111.262 14.1889 111.658 13.8259 112.153 13.5729C112.659 13.3199 113.215 13.1934 113.82 13.1934C114.579 13.1934 115.25 13.3639 115.833 13.7049C116.416 14.0459 116.85 14.5464 117.136 15.2064C117.389 14.5684 117.807 14.0734 118.39 13.7214C118.973 13.3694 119.622 13.1934 120.337 13.1934ZM134.713 17.5329C134.713 17.8189 134.697 18.1214 134.664 18.4404H127.437C127.492 19.3314 127.794 20.0299 128.344 20.5359C128.905 21.0309 129.582 21.2784 130.374 21.2784C131.023 21.2784 131.562 21.1299 131.991 20.8329C132.431 20.5249 132.739 20.1179 132.915 19.6119H134.532C134.29 20.4809 133.806 21.1904 133.08 21.7404C132.354 22.2794 131.452 22.5489 130.374 22.5489C129.516 22.5489 128.746 22.3564 128.064 21.9714C127.393 21.5864 126.865 21.0419 126.48 20.3379C126.095 19.6229 125.902 18.7979 125.902 17.8629C125.902 16.9279 126.089 16.1084 126.463 15.4044C126.837 14.7004 127.36 14.1614 128.031 13.7874C128.713 13.4024 129.494 13.2099 130.374 13.2099C131.232 13.2099 131.991 13.3969 132.651 13.7709C133.311 14.1449 133.817 14.6619 134.169 15.3219C134.532 15.9709 134.713 16.7079 134.713 17.5329ZM133.162 17.2194C133.162 16.6474 133.036 16.1579 132.783 15.7509C132.53 15.3329 132.183 15.0194 131.743 14.8104C131.314 14.5904 130.836 14.4804 130.308 14.4804C129.549 14.4804 128.9 14.7224 128.361 15.2064C127.833 15.6904 127.53 16.3614 127.453 17.2194H133.162ZM139.896 22.5489C139.203 22.5489 138.582 22.4334 138.032 22.2024C137.482 21.9604 137.047 21.6304 136.728 21.2124C136.409 20.7834 136.233 20.2939 136.2 19.7439H137.751C137.795 20.1949 138.004 20.5634 138.378 20.8494C138.763 21.1354 139.264 21.2784 139.88 21.2784C140.452 21.2784 140.903 21.1519 141.233 20.8989C141.563 20.6459 141.728 20.3269 141.728 19.9419C141.728 19.5459 141.552 19.2544 141.2 19.0674C140.848 18.8694 140.303 18.6769 139.566 18.4899C138.895 18.3139 138.345 18.1379 137.916 17.9619C137.498 17.7749 137.135 17.5054 136.827 17.1534C136.53 16.7904 136.382 16.3174 136.382 15.7344C136.382 15.2724 136.519 14.8489 136.794 14.4639C137.069 14.0789 137.46 13.7764 137.966 13.5564C138.472 13.3254 139.049 13.2099 139.698 13.2099C140.699 13.2099 141.508 13.4629 142.124 13.9689C142.74 14.4749 143.07 15.1679 143.114 16.0479H141.612C141.579 15.5749 141.387 15.1954 141.035 14.9094C140.694 14.6234 140.232 14.4804 139.649 14.4804C139.11 14.4804 138.681 14.5959 138.362 14.8269C138.043 15.0579 137.883 15.3604 137.883 15.7344C137.883 16.0314 137.977 16.2789 138.164 16.4769C138.362 16.6639 138.604 16.8179 138.89 16.9389C139.187 17.0489 139.594 17.1754 140.111 17.3184C140.76 17.4944 141.288 17.6704 141.695 17.8464C142.102 18.0114 142.448 18.2644 142.734 18.6054C143.031 18.9464 143.185 19.3919 143.196 19.9419C143.196 20.4369 143.059 20.8824 142.784 21.2784C142.509 21.6744 142.118 21.9879 141.612 22.2189C141.117 22.4389 140.545 22.5489 139.896 22.5489Z" fill="black"/>
</svg>
