<svg width="524" height="393" viewBox="0 0 524 393" fill="none" xmlns="http://www.w3.org/2000/svg">
<path d="M312.821 93.4492L312.958 97.7657C312.964 97.9151 313.006 98.0609 313.08 98.1908C313.154 98.3207 313.259 98.431 313.384 98.5124L317.019 100.87C317.164 100.963 317.279 101.095 317.353 101.25C317.427 101.406 317.456 101.578 317.437 101.749C317.418 101.92 317.352 102.082 317.245 102.217C317.139 102.353 316.997 102.456 316.836 102.514L312.775 103.982C312.631 104.034 312.503 104.122 312.401 104.236C312.3 104.35 312.228 104.488 312.192 104.637L311.124 108.77C311.08 108.935 310.991 109.086 310.866 109.203C310.741 109.321 310.586 109.402 310.419 109.437C310.251 109.471 310.076 109.458 309.915 109.4C309.754 109.341 309.613 109.238 309.506 109.104L306.854 105.691C306.761 105.573 306.641 105.479 306.504 105.418C306.367 105.356 306.217 105.329 306.068 105.338L301.758 105.593C301.586 105.603 301.414 105.565 301.262 105.483C301.111 105.4 300.985 105.277 300.9 105.127C300.815 104.977 300.773 104.806 300.78 104.634C300.787 104.462 300.842 104.295 300.939 104.152L303.362 100.576C303.446 100.451 303.498 100.308 303.515 100.158C303.532 100.009 303.513 99.8582 303.461 99.7176L301.889 95.6959C301.826 95.5356 301.809 95.361 301.84 95.1917C301.872 95.0224 301.95 94.8652 302.065 94.7379C302.181 94.6105 302.33 94.518 302.496 94.4709C302.661 94.4237 302.837 94.4238 303.002 94.471L307.155 95.6697C307.298 95.711 307.449 95.7171 307.595 95.6875C307.741 95.6578 307.878 95.5933 307.993 95.4994L311.334 92.7615C311.468 92.6606 311.627 92.598 311.794 92.5804C311.962 92.5627 312.13 92.5906 312.283 92.6611C312.435 92.7317 312.566 92.8422 312.66 92.9809C312.755 93.1197 312.811 93.2815 312.821 93.4492Z" fill="#DDDDDD" stroke="#DDDDDD" stroke-width="0.655" stroke-miterlimit="10"/>
<path d="M407.409 134.929L410.58 137.864C410.691 137.964 410.824 138.037 410.969 138.076C411.113 138.114 411.265 138.118 411.411 138.087L415.623 137.137C415.794 137.094 415.974 137.102 416.141 137.158C416.309 137.215 416.456 137.318 416.566 137.456C416.677 137.594 416.745 137.761 416.764 137.936C416.782 138.112 416.75 138.289 416.671 138.447L414.863 142.377C414.8 142.512 414.77 142.661 414.777 142.811C414.784 142.96 414.827 143.106 414.903 143.235L417.11 146.949C417.198 147.097 417.243 147.267 417.239 147.439C417.236 147.612 417.184 147.78 417.09 147.924C416.996 148.069 416.863 148.184 416.707 148.257C416.551 148.33 416.377 148.358 416.206 148.337L411.922 147.833C411.773 147.814 411.621 147.833 411.481 147.886C411.34 147.94 411.215 148.027 411.117 148.141L408.267 151.383C408.155 151.515 408.008 151.612 407.843 151.663C407.678 151.714 407.501 151.718 407.334 151.673C407.167 151.629 407.016 151.538 406.898 151.411C406.781 151.285 406.701 151.127 406.669 150.957L405.824 146.719C405.793 146.575 405.727 146.44 405.632 146.326C405.538 146.212 405.417 146.122 405.281 146.064L401.351 144.355C401.191 144.289 401.053 144.179 400.953 144.038C400.853 143.897 400.795 143.731 400.786 143.558C400.776 143.386 400.815 143.214 400.899 143.063C400.983 142.912 401.108 142.788 401.259 142.704L405.032 140.595C405.162 140.521 405.273 140.416 405.354 140.289C405.435 140.162 405.484 140.018 405.497 139.868L405.896 135.571C405.909 135.402 405.967 135.239 406.066 135.101C406.165 134.963 406.3 134.855 406.457 134.788C406.613 134.722 406.785 134.7 406.953 134.725C407.121 134.75 407.279 134.821 407.409 134.929Z" fill="#DDDDDD" stroke="#DDDDDD" stroke-width="0.655" stroke-miterlimit="10"/>
<path d="M95.5049 106.641H79.3395C77.2434 106.581 75.2532 105.706 73.7918 104.202C72.3303 102.699 71.5127 100.684 71.5127 98.5874C71.5127 96.4905 72.3303 94.4761 73.7918 92.9724C75.2532 91.4686 77.2434 90.594 79.3395 90.5342H95.5049" stroke="#DDDDDD" stroke-width="0.655" stroke-miterlimit="10"/>
<path d="M95.3155 248.035H91.7916C89.007 248.035 86.3363 246.929 84.3673 244.96C82.3982 242.991 81.292 240.32 81.292 237.536C81.292 234.751 82.3982 232.08 84.3673 230.111C86.3363 228.142 89.007 227.036 91.7916 227.036H95.5055" stroke="#DDDDDD" stroke-width="0.655" stroke-miterlimit="10"/>
<path d="M341.569 294.9H319.208C313.506 294.9 308.885 299.522 308.885 305.223V305.583C308.885 311.285 313.506 315.906 319.208 315.906H341.569C347.27 315.906 351.892 311.285 351.892 305.583V305.223C351.892 299.522 347.27 294.9 341.569 294.9Z" stroke="#DDDDDD" stroke-width="0.655" stroke-miterlimit="10"/>
<path d="M441.627 308.263H408.922C406.94 308.263 405.333 309.87 405.333 311.852V311.977C405.333 313.959 406.94 315.566 408.922 315.566H441.627C443.609 315.566 445.216 313.959 445.216 311.977V311.852C445.216 309.87 443.609 308.263 441.627 308.263Z" stroke="#DDDDDD" stroke-width="0.655" stroke-miterlimit="10"/>
<path d="M440.12 88.3793H444.653C445.73 88.3485 446.802 88.5341 447.806 88.925C448.81 89.3159 449.725 89.9042 450.497 90.655C451.27 91.4059 451.884 92.3041 452.303 93.2964C452.723 94.2888 452.939 95.3552 452.939 96.4325C452.939 97.5098 452.723 98.5762 452.303 99.5686C451.884 100.561 451.27 101.459 450.497 102.21C449.725 102.961 448.81 103.549 447.806 103.94C446.802 104.331 445.73 104.516 444.653 104.486H440.12" stroke="#DDDDDD" stroke-width="0.655" stroke-miterlimit="10"/>
<path d="M419.449 285.685H116.184C110.703 285.678 105.449 283.498 101.574 279.623C97.6988 275.747 95.5187 270.493 95.5117 265.013V79.0585C95.5169 73.5776 97.6965 68.3227 101.572 64.4471C105.448 60.5715 110.703 58.3919 116.184 58.3867H419.449C424.929 58.3919 430.184 60.5715 434.06 64.4471C437.935 68.3227 440.115 73.5776 440.12 79.0585V265.013C440.115 270.494 437.935 275.749 434.06 279.624C430.184 283.5 424.929 285.68 419.449 285.685Z" stroke="#DDDDDD" stroke-width="1.31" stroke-linecap="round" stroke-linejoin="round"/>
<path d="M419.455 73.0527H116.177C112.86 73.0527 110.171 75.7419 110.171 79.0591V265.014C110.171 268.331 112.86 271.02 116.177 271.02H419.455C422.773 271.02 425.462 268.331 425.462 265.014V79.0591C425.462 75.7419 422.773 73.0527 419.455 73.0527Z" stroke="#DDDDDD" stroke-width="1.31" stroke-miterlimit="10"/>
<path d="M408.169 206.679V228.569H352.77V150.525" stroke="#DDDDDD" stroke-width="0.655" stroke-linecap="round" stroke-linejoin="round"/>
<path d="M408.169 151.455V163.684" stroke="#DDDDDD" stroke-width="0.655" stroke-linecap="round" stroke-linejoin="round"/>
<path d="M362.522 140.504H405.019" stroke="#DDDDDD" stroke-width="0.655" stroke-linecap="round" stroke-linejoin="round"/>
<path d="M383.122 150.944H394.578" stroke="#DDDDDD" stroke-width="0.655" stroke-linecap="round" stroke-linejoin="round"/>
<path d="M383.122 156.31H392.39" stroke="#DDDDDD" stroke-width="0.655" stroke-linecap="round" stroke-linejoin="round"/>
<path d="M362.279 182.922H370.729" stroke="#DDDDDD" stroke-width="0.655" stroke-linecap="round" stroke-linejoin="round"/>
<path d="M362.279 190.297H366.832" stroke="#DDDDDD" stroke-width="0.655" stroke-linecap="round" stroke-linejoin="round"/>
<path d="M418.204 163.685H390.059V206.679H418.204V163.685Z" stroke="#DDDDDD" stroke-width="0.655" stroke-linecap="round" stroke-linejoin="round"/>
<path d="M400.375 171.072H408.169" stroke="#DDDDDD" stroke-width="0.655" stroke-linecap="round" stroke-linejoin="round"/>
<path d="M403.702 176.837H408.169" stroke="#DDDDDD" stroke-width="0.655" stroke-linecap="round" stroke-linejoin="round"/>
<path d="M250.753 197.516C252.417 201.4 242.428 208.651 236.776 205.284C233.546 210.072 223.826 206.784 226.145 203.974C220.086 204.505 213.261 201.354 216.019 196.147C208.506 193.232 212.089 186.564 219.549 186.407C213.104 177.237 218.239 170.314 228.785 170.995C228.673 159.86 242.396 160.338 243.476 171.846C251.52 168.99 258.194 177.27 252.83 183.787C260.185 187.33 257.12 195.138 250.753 197.516Z" stroke="#DDDDDD" stroke-width="0.655" stroke-linecap="round" stroke-linejoin="round"/>
<path d="M226.95 177H245.493C245.493 177 248.309 187.336 244.183 198.019L224.749 197.718C224.749 197.718 229.989 186.327 226.95 177Z" stroke="#DDDDDD" stroke-width="0.655" stroke-linecap="round" stroke-linejoin="round"/>
<path d="M231.129 182.24H240.567" stroke="#DDDDDD" stroke-width="0.655" stroke-linecap="round" stroke-linejoin="round"/>
<path d="M231.731 186.334H238.864" stroke="#DDDDDD" stroke-width="0.655" stroke-linecap="round" stroke-linejoin="round"/>
<path d="M231.267 190.245H241.164" stroke="#DDDDDD" stroke-width="0.655" stroke-linecap="round" stroke-linejoin="round"/>
<path d="M357.138 146.517C355.056 151.22 347.458 152.936 343.128 149.942C341.117 154.934 331.934 156.027 327.264 153.637C328.653 147.322 324.899 143.504 320.138 143.412C318.742 139.345 319.81 134.858 323.347 133.364C320.295 126.998 325.482 123.539 330.886 126.461C330.722 120.153 338.582 113.361 346.927 120.31C353.182 115.562 361.789 122.452 357.938 131.917C365.267 133.738 363.394 147.48 357.138 146.517Z" fill="#DDDDDD" stroke="#DDDDDD" stroke-width="0.655" stroke-miterlimit="10"/>
<path d="M164.477 89.8789H193.834C192.524 98.9048 194.489 113.701 200.351 125.328H168.014C168.014 125.328 158.47 117.599 164.477 89.8789Z" stroke="#DDDDDD" stroke-width="1.31" stroke-linecap="round" stroke-linejoin="round"/>
<path d="M273.062 112.758L297.533 112.81C297.533 112.81 301.09 124.856 293.276 137.871L266.794 136.796C266.794 136.796 274.87 125.105 273.062 112.758Z" stroke="#DDDDDD" stroke-width="0.655" stroke-linecap="round" stroke-linejoin="round"/>
<path d="M277.529 118.62H293.511" stroke="#DDDDDD" stroke-width="0.655" stroke-linecap="round" stroke-linejoin="round"/>
<path d="M277.759 123.979H290.512" stroke="#DDDDDD" stroke-width="0.655" stroke-linecap="round" stroke-linejoin="round"/>
<path d="M277.529 130.993H283.555" stroke="#DDDDDD" stroke-width="0.655" stroke-linecap="round" stroke-linejoin="round"/>
<path d="M284.918 130.993H288.927" stroke="#DDDDDD" stroke-width="0.655" stroke-linecap="round" stroke-linejoin="round"/>
<path d="M207.817 81.5283L256.372 82.1833C256.372 82.1833 259.975 102.2 252.541 128.223H202.761C202.761 128.223 211.053 105.678 207.817 81.5283Z" stroke="#DDDDDD" stroke-width="0.655" stroke-linecap="round" stroke-linejoin="round"/>
<path d="M234.752 99.8867L248.808 100.319" stroke="#DDDDDD" stroke-width="0.655" stroke-linecap="round" stroke-linejoin="round"/>
<path d="M240.771 96.167L249.384 96.4355" stroke="#DDDDDD" stroke-width="0.655" stroke-linecap="round" stroke-linejoin="round"/>
<path d="M247.301 92.6826L250.032 92.7678" stroke="#DDDDDD" stroke-width="0.655" stroke-linecap="round" stroke-linejoin="round"/>
<path d="M245.205 88.248L250.032 88.3987" stroke="#DDDDDD" stroke-width="0.655" stroke-linecap="round" stroke-linejoin="round"/>
<path d="M247.307 108.154H233.677V120.815H247.307V108.154Z" fill="#DDDDDD" stroke="#DDDDDD" stroke-width="0.655" stroke-miterlimit="10"/>
<path d="M307.352 151.829H319.397" stroke="#DDDDDD" stroke-width="0.655" stroke-linecap="round" stroke-linejoin="round"/>
<path d="M304.758 157.135H316.803" stroke="#DDDDDD" stroke-width="0.655" stroke-linecap="round" stroke-linejoin="round"/>
<path d="M302.949 162.84H314.995" stroke="#DDDDDD" stroke-width="0.655" stroke-linecap="round" stroke-linejoin="round"/>
<path d="M325.096 165.31C327.297 172.298 316.686 176.955 311.767 169.842C306.717 178.508 286.877 173.071 295.713 162.919C289.471 162.342 290.519 150.238 297.678 151.26C293.931 140.334 309.075 136.332 313.214 145.902C315.179 144.308 317.627 143.43 320.157 143.413C324.919 143.505 328.672 147.343 327.284 153.637C327.192 154.07 327.074 154.509 326.93 154.947C333.12 157.417 329.622 164.923 325.096 165.31Z" stroke="#DDDDDD" stroke-width="0.655" stroke-linecap="round" stroke-linejoin="round"/>
<path d="M334.967 129.153H347.897" stroke="#F9F9F9" stroke-width="0.655" stroke-linecap="round" stroke-linejoin="round"/>
<path d="M334.646 134.524H345.276" stroke="#F9F9F9" stroke-width="0.655" stroke-linecap="round" stroke-linejoin="round"/>
<path d="M334.278 141.723H342.106" stroke="#F9F9F9" stroke-width="0.655" stroke-linecap="round" stroke-linejoin="round"/>
<path d="M376.92 152.772H361.056V174.59H376.92V152.772Z" fill="#EDEDED" stroke="#DDDDDD" stroke-width="0.655" stroke-linecap="round" stroke-linejoin="round"/>
<path d="M291.992 111.049L301.175 120.815L304.26 116.892L295.457 108.154L291.992 111.049Z" fill="#DDDDDD" stroke="#DDDDDD" stroke-width="0.655" stroke-miterlimit="10"/>
<path d="M268.313 116.001L277.529 106.176L281.079 109.464L272.027 120.167L268.313 116.001Z" fill="#DDDDDD" stroke="#DDDDDD" stroke-width="0.655" stroke-miterlimit="10"/>
<path d="M384.93 166.625L388.499 169.697C388.499 169.697 397.224 160.416 397.06 160.416C396.897 160.416 393.091 157.573 393.091 157.573L384.93 166.625Z" fill="#DDDDDD" stroke="#DDDDDD" stroke-width="0.655" stroke-miterlimit="10"/>
<path d="M410.429 161.365L414.346 158.012L423.686 167.909L419.376 171.603L410.429 161.365Z" fill="#DDDDDD" stroke="#DDDDDD" stroke-width="0.655" stroke-miterlimit="10"/>
<path d="M411.844 112.961C409.904 118.161 406.224 122.529 401.429 125.322C396.633 128.116 391.018 129.162 385.538 128.284C380.058 127.405 375.052 124.657 371.369 120.504C367.687 116.352 365.556 111.053 365.339 105.507C366.592 108.146 368.473 110.436 370.818 112.177C373.164 113.918 375.9 115.056 378.788 115.492C381.676 115.928 384.627 115.648 387.382 114.677C390.136 113.706 392.61 112.073 394.586 109.922C396.562 107.771 397.979 105.167 398.713 102.34C399.447 99.5133 399.476 96.5493 398.797 93.7086C398.118 90.868 396.751 88.2376 394.818 86.0486C392.884 83.8596 390.442 82.179 387.707 81.1543C387.249 80.984 386.797 80.8334 386.338 80.7089C390.44 80.1935 394.606 80.7453 398.432 82.311C402.259 83.8767 405.616 86.4033 408.18 89.6464C410.744 92.8895 412.428 96.7394 413.069 100.824C413.709 104.908 413.285 109.089 411.837 112.961H411.844Z" fill="#EDEDED" stroke="#DDDDDD" stroke-width="0.655" stroke-linecap="round" stroke-linejoin="round"/>
<path d="M162.531 81.8749L165.806 84.698C165.919 84.7952 166.054 84.8633 166.199 84.8964C166.344 84.9296 166.495 84.9266 166.638 84.8879L170.817 83.8006C170.984 83.7565 171.16 83.7601 171.325 83.8108C171.49 83.8615 171.637 83.9574 171.75 84.0877C171.863 84.2179 171.938 84.3773 171.965 84.5476C171.992 84.718 171.971 84.8926 171.904 85.0517L170.228 89.0341C170.171 89.1717 170.148 89.3212 170.162 89.4696C170.175 89.6179 170.225 89.7607 170.306 89.8856L172.631 93.5274C172.723 93.6722 172.773 93.8396 172.775 94.0109C172.777 94.1823 172.731 94.3508 172.642 94.4976C172.554 94.6444 172.427 94.7638 172.274 94.8423C172.122 94.9208 171.951 94.9554 171.78 94.9422L167.477 94.5819C167.327 94.568 167.177 94.5912 167.038 94.6495C166.9 94.7078 166.778 94.7993 166.684 94.916L163.946 98.2499C163.836 98.3821 163.691 98.4812 163.528 98.5361C163.365 98.591 163.19 98.5996 163.022 98.5609C162.855 98.5222 162.701 98.4378 162.579 98.3169C162.456 98.1961 162.369 98.0437 162.328 97.8766L161.346 93.6715C161.312 93.5249 161.243 93.3887 161.145 93.2746C161.047 93.1605 160.922 93.072 160.783 93.0165L156.761 91.4445C156.6 91.382 156.46 91.2758 156.357 91.1379C156.253 90.9999 156.19 90.8358 156.175 90.664C156.16 90.4922 156.194 90.3197 156.272 90.1659C156.35 90.0121 156.469 89.8833 156.617 89.7939L160.311 87.5603C160.44 87.4826 160.548 87.3745 160.625 87.2455C160.703 87.1165 160.748 86.9705 160.756 86.8202L161.005 82.5103C161.017 82.339 161.076 82.1743 161.176 82.0348C161.276 81.8952 161.413 81.7863 161.572 81.7203C161.73 81.6544 161.904 81.6339 162.074 81.6612C162.243 81.6885 162.402 81.7625 162.531 81.8749Z" fill="#DDDDDD" stroke="#DDDDDD" stroke-width="0.655" stroke-miterlimit="10"/>
<path d="M121.607 325.011L125.759 308.413H165.957L161.784 325.011M170.07 325.011L213.955 150.021C214.084 149.509 214.111 148.978 214.035 148.456C213.958 147.934 213.78 147.432 213.509 146.98C213.239 146.527 212.882 146.132 212.459 145.817C212.036 145.502 211.555 145.273 211.044 145.144C210.532 145.015 210.001 144.988 209.479 145.065C208.957 145.141 208.455 145.32 208.003 145.59C207.55 145.86 207.155 146.217 206.84 146.64C206.525 147.064 206.296 147.544 206.167 148.056L201.89 165.125H161.686L165.472 149.995C165.601 149.483 165.628 148.951 165.552 148.43C165.475 147.908 165.297 147.406 165.026 146.953C164.756 146.501 164.399 146.105 163.976 145.791C163.553 145.476 163.072 145.247 162.561 145.118C162.049 144.989 161.517 144.962 160.996 145.039C160.474 145.115 159.972 145.294 159.519 145.564C159.067 145.834 158.671 146.191 158.357 146.614C158.042 147.037 157.813 147.518 157.684 148.03L113.314 325.011M200.364 171.151L193.624 198.006H153.44L160.18 171.151H200.364ZM192.118 204.032L179.738 253.485H139.514L151.959 204.032H192.118ZM167.476 302.4H127.279L138.034 259.491H178.231L167.476 302.4Z" fill="#EDEDED"/>
<path d="M121.607 325.011L125.759 308.413H165.957L161.784 325.011M170.07 325.011L213.955 150.021C214.084 149.509 214.111 148.978 214.035 148.456C213.958 147.934 213.78 147.432 213.509 146.98C213.239 146.527 212.882 146.132 212.459 145.817C212.036 145.502 211.555 145.273 211.044 145.144C210.532 145.015 210.001 144.988 209.479 145.065C208.957 145.141 208.455 145.32 208.003 145.59C207.55 145.86 207.155 146.217 206.84 146.64C206.525 147.064 206.296 147.544 206.167 148.056L201.89 165.125H161.686L165.472 149.995C165.601 149.483 165.628 148.951 165.552 148.43C165.475 147.908 165.297 147.406 165.026 146.953C164.756 146.501 164.399 146.105 163.976 145.791C163.553 145.476 163.072 145.247 162.561 145.118C162.049 144.989 161.517 144.962 160.996 145.039C160.474 145.115 159.972 145.294 159.519 145.564C159.067 145.834 158.671 146.191 158.357 146.614C158.042 147.037 157.813 147.518 157.684 148.03L113.314 325.011M200.364 171.151L193.624 198.006H153.44L160.18 171.151H200.364ZM192.118 204.032L179.738 253.485H139.514L151.959 204.032H192.118ZM167.476 302.4H127.279L138.034 259.491H178.231L167.476 302.4Z" stroke="#DDDDDD" stroke-width="1.31" stroke-linecap="round" stroke-linejoin="round"/>
<path d="M443.848 267.803C444.391 271.281 440.494 274.785 437.625 276.22C437.625 276.22 434.278 268.733 434.52 268.733C434.763 268.733 440.428 265.517 443.848 267.803Z" fill="#FCC71F"/>
<path d="M422.861 328.449C408.517 338.7 390.236 331.724 390.236 331.724V326.373C375.59 326.602 360.106 321.932 360.106 321.932C359.13 310.797 360.97 297.173 362.104 290.236C362.562 287.439 362.909 285.736 362.909 285.736C371.64 282.894 422.043 283.902 422.043 283.902C422.233 285.553 422.377 287.492 422.501 289.627C423.379 304.437 422.861 328.449 422.861 328.449Z" fill="#A7CAF0"/>
<mask id="mask0_1518_433" style="mask-type:luminance" maskUnits="userSpaceOnUse" x="359" y="283" width="65" height="52">
<path d="M422.861 328.449C408.517 338.7 390.236 331.724 390.236 331.724V326.373C375.59 326.602 360.106 321.932 360.106 321.932C359.13 310.797 360.97 297.173 362.104 290.236C362.562 287.439 362.909 285.736 362.909 285.736C371.64 282.894 422.043 283.902 422.043 283.902C422.233 285.553 422.377 287.492 422.501 289.627C423.379 304.437 422.861 328.449 422.861 328.449Z" fill="white"/>
</mask>
<g mask="url(#mask0_1518_433)">
<path d="M423.449 299.092H420.076V302.465H423.449V299.092Z" stroke="white" stroke-width="0.49125" stroke-linecap="round" stroke-linejoin="round"/>
<path d="M407.016 299.092H403.643V302.465H407.016V299.092Z" stroke="white" stroke-width="0.49125" stroke-linecap="round" stroke-linejoin="round"/>
<path d="M390.588 299.092H387.215V302.465H390.588V299.092Z" stroke="white" stroke-width="0.49125" stroke-linecap="round" stroke-linejoin="round"/>
<path d="M374.161 299.092H370.788V302.465H374.161V299.092Z" stroke="white" stroke-width="0.49125" stroke-linecap="round" stroke-linejoin="round"/>
<path d="M423.449 319.935H420.076V323.308H423.449V319.935Z" stroke="white" stroke-width="0.49125" stroke-linecap="round" stroke-linejoin="round"/>
<path d="M407.016 319.935H403.643V323.308H407.016V319.935Z" stroke="white" stroke-width="0.49125" stroke-linecap="round" stroke-linejoin="round"/>
<path d="M390.588 319.935H387.215V323.308H390.588V319.935Z" stroke="white" stroke-width="0.49125" stroke-linecap="round" stroke-linejoin="round"/>
<path d="M374.161 319.935H370.788V323.308H374.161V319.935Z" stroke="white" stroke-width="0.49125" stroke-linecap="round" stroke-linejoin="round"/>
<path d="M366.616 286.981H359.876V293.721H366.616V286.981Z" stroke="white" stroke-width="0.49125" stroke-linecap="round" stroke-linejoin="round"/>
<path d="M383.449 286.981H376.709V293.721H383.449V286.981Z" stroke="white" stroke-width="0.49125" stroke-linecap="round" stroke-linejoin="round"/>
<path d="M400.283 286.981H393.543V293.721H400.283V286.981Z" stroke="white" stroke-width="0.49125" stroke-linecap="round" stroke-linejoin="round"/>
<path d="M417.116 286.981H410.376V293.721H417.116V286.981Z" stroke="white" stroke-width="0.49125" stroke-linecap="round" stroke-linejoin="round"/>
<path d="M366.616 307.83H359.876V314.57H366.616V307.83Z" stroke="white" stroke-width="0.49125" stroke-linecap="round" stroke-linejoin="round"/>
<path d="M383.449 307.83H376.709V314.57H383.449V307.83Z" stroke="white" stroke-width="0.49125" stroke-linecap="round" stroke-linejoin="round"/>
<path d="M400.283 307.83H393.543V314.57H400.283V307.83Z" stroke="white" stroke-width="0.49125" stroke-linecap="round" stroke-linejoin="round"/>
<path d="M417.116 307.83H410.376V314.57H417.116V307.83Z" stroke="white" stroke-width="0.49125" stroke-linecap="round" stroke-linejoin="round"/>
<path d="M366.616 328.672H359.876V335.412H366.616V328.672Z" stroke="white" stroke-width="0.49125" stroke-linecap="round" stroke-linejoin="round"/>
<path d="M383.449 328.672H376.709V335.412H383.449V328.672Z" stroke="white" stroke-width="0.49125" stroke-linecap="round" stroke-linejoin="round"/>
<path d="M400.283 328.672H393.543V335.412H400.283V328.672Z" stroke="white" stroke-width="0.49125" stroke-linecap="round" stroke-linejoin="round"/>
<path d="M417.116 328.672H410.376V335.412H417.116V328.672Z" stroke="white" stroke-width="0.49125" stroke-linecap="round" stroke-linejoin="round"/>
</g>
<path d="M422.521 289.654C414.107 291.407 405.563 292.46 396.976 292.804C392.561 293.021 388.074 293.08 383.719 292.962C375.662 292.739 368.051 291.907 362.104 290.263C362.562 287.466 362.909 285.763 362.909 285.763C366.001 284.761 374.293 284.231 383.725 283.975C388.035 283.857 392.581 283.798 396.982 283.772C410.194 283.687 422.043 283.929 422.043 283.929C422.252 285.58 422.396 287.545 422.521 289.654Z" fill="#683F1D"/>
<path d="M397.001 283.771V292.784C392.587 293 388.1 293.059 383.744 292.941V283.975C388.054 283.857 392.6 283.798 397.001 283.771Z" fill="white"/>
<path d="M390.235 326.399L390.373 311.917" stroke="#4BBAC2" stroke-width="0.49125" stroke-linecap="round" stroke-linejoin="round"/>
<path d="M443.847 267.803C443.847 267.803 441.882 268.17 438.967 269.034C434.199 270.411 429.605 272.334 425.278 274.766C424.479 275.224 420.994 278.925 417.516 282.088C414.942 284.433 412.361 286.483 410.888 286.673C403.421 287.784 395.878 288.307 388.329 288.239C386.932 288.239 385.583 288.202 384.282 288.128C377.111 287.91 369.97 287.11 362.929 285.737C363.335 285.737 362.719 279.999 362.136 274.418C361.992 272.99 361.848 271.569 361.717 270.259C361.514 270.397 349.121 261.744 348.053 260.965L347.981 260.912C347.981 260.912 348.04 260.591 348.171 260.008C348.898 256.733 351.774 245.146 357.505 236.238C358.74 234.282 360.174 232.458 361.782 230.795C370.173 222.28 380.057 219.529 390.059 218.756C400.06 217.984 401.246 217.741 401.246 217.741C410.22 220.852 420.241 222.713 427.446 231.359C429.029 233.368 430.409 235.529 431.566 237.81C437.756 249.338 443.847 267.803 443.847 267.803Z" fill="#FED81D"/>
<path d="M366.931 243.855C365.457 249.973 362.693 260.276 362.804 271.071C362.804 270.802 349.121 261.737 348.054 260.99L348.172 260.034C352.442 258.023 355.154 259.379 357.505 260.368C362.804 262.536 360.197 245.034 366.839 243.869L366.931 243.855Z" fill="#FCC71F"/>
<path d="M417.516 282.089C414.942 284.434 412.361 286.484 410.887 286.674C403.42 287.784 395.878 288.308 388.329 288.239C386.932 288.239 385.583 288.202 384.281 288.128C386.796 284.322 392.141 278.067 399.785 279.528C410.573 281.604 412.571 263.88 410.573 256.341C408.575 248.802 413.632 245.736 413.632 245.736C413.8 250.363 414.376 254.966 415.354 259.491C415.354 259.622 415.413 259.76 415.446 259.897C416.645 265.635 417.234 275.755 417.516 282.089Z" fill="#FCC71F"/>
<path d="M431.579 237.837C422.52 235.629 413.625 236.356 409.728 240.155C401.789 247.924 386.371 258.423 377.469 247.151C371.705 239.848 365.385 235.263 357.505 236.265C358.74 234.309 360.173 232.485 361.782 230.822C370.173 222.307 380.057 219.556 390.058 218.783C400.06 218.01 401.246 217.768 401.246 217.768C410.219 220.879 420.241 222.739 427.446 231.385C429.033 233.394 430.417 235.555 431.579 237.837Z" fill="#FFE05C"/>
<path d="M415.879 261.816C415.722 261.161 415.584 260.552 415.447 259.923C415.447 259.786 415.381 259.648 415.355 259.517C414.377 254.992 413.8 250.389 413.632 245.762C413.573 243.893 413.608 242.021 413.737 240.155" stroke="#F7AD2B" stroke-width="0.49125" stroke-linecap="round" stroke-linejoin="round"/>
<path d="M417.719 227.383C416.389 229.043 415.434 230.971 414.922 233.035" stroke="#F7AD2B" stroke-width="0.49125" stroke-linecap="round" stroke-linejoin="round"/>
<path d="M390.786 231.215C389.81 235.8 390.229 242.147 390.229 242.147" stroke="#F7AD2B" stroke-width="0.49125" stroke-linecap="round" stroke-linejoin="round"/>
<path d="M362.804 269.708C362.804 257.224 368.044 239.408 368.044 239.408" stroke="#F7AD2B" stroke-width="0.49125" stroke-linecap="round" stroke-linejoin="round"/>
<path d="M384.183 218.77C380.77 218.77 379.964 227.972 381.445 232.479C382.67 236.212 387.995 229.662 392.016 225.745L384.183 218.77Z" fill="white"/>
<path d="M389.783 225.392C393.903 229.466 397.853 234.11 399.503 233.448C401.154 232.787 405.313 220.846 404.128 218.056C403.75 217.214 403.202 216.46 402.519 215.84C401.836 215.22 401.032 214.748 400.158 214.453L389.783 225.392Z" fill="white"/>
<path d="M390.785 225.608C397.99 224.114 400.158 214.473 400.158 214.473C390.097 214.473 384.183 218.802 384.183 218.802C384.183 218.802 382.997 227.226 390.785 225.608Z" fill="white"/>
<path d="M362.804 269.709C360.885 262.838 356.575 260.9 353.103 260.539C351.407 260.369 349.693 260.522 348.053 260.991C343.606 277.982 341.818 283.733 347.746 285.508C353.673 287.283 359.765 283.72 362.811 281.054C363.112 275.133 362.804 269.709 362.804 269.709Z" fill="#FEBD9D"/>
<path d="M439.616 286.66C435.359 294.736 430.243 295.064 424.008 293.715C417.189 291.612 421.552 280.019 425.278 274.765C429.606 272.334 434.199 270.411 438.968 269.034C440.645 274.268 442.977 280.3 439.616 286.66Z" fill="#FEBD9D"/>
<path d="M399.897 240.752C397.103 239.093 393.852 238.372 390.618 238.692C387.384 239.013 384.338 240.359 381.924 242.534L382.978 238.053L377.738 236.658C372.538 252.607 376.586 266.552 391.186 266.028L405.903 257.356C405.903 257.356 409.316 245.959 399.897 240.752ZM394.415 258.64H394.349C392.978 258.63 391.645 258.191 390.537 257.384C389.429 256.576 388.603 255.442 388.174 254.14C387.745 252.838 387.735 251.434 388.146 250.126C388.557 248.818 389.368 247.672 390.465 246.85H390.537C391.907 246.861 393.24 247.301 394.347 248.109C395.453 248.917 396.279 250.052 396.707 251.353C397.135 252.655 397.144 254.058 396.733 255.365C396.322 256.673 395.511 257.818 394.415 258.64Z" fill="#F4F4F4" stroke="#DDDDDD" stroke-width="0.655" stroke-linecap="round" stroke-linejoin="round"/>
<path d="M394.415 258.64C393.584 259.262 392.618 259.679 391.595 259.855C390.572 260.031 389.522 259.961 388.532 259.652C387.541 259.342 386.638 258.802 385.897 258.075C385.156 257.348 384.599 256.456 384.271 255.471C383.942 254.486 383.853 253.438 384.009 252.412C384.166 251.386 384.564 250.412 385.171 249.57C385.778 248.728 386.576 248.042 387.5 247.569C388.424 247.096 389.447 246.85 390.485 246.85C389.388 247.672 388.577 248.818 388.166 250.126C387.755 251.433 387.764 252.837 388.193 254.139C388.622 255.441 389.449 256.576 390.557 257.383C391.665 258.191 392.998 258.63 394.369 258.64H394.415Z" fill="#DDDDDD" stroke="#DDDDDD" stroke-width="0.655" stroke-linecap="round" stroke-linejoin="round"/>
<path d="M381.924 242.533C378.236 246.463 375.472 252.47 377.994 259.517" stroke="#DDDDDD" stroke-width="0.655" stroke-linecap="round" stroke-linejoin="round"/>
<path d="M401.757 254.14C402.222 245.134 393.949 237.11 383.417 241.381" stroke="#DDDDDD" stroke-width="0.655" stroke-linecap="round" stroke-linejoin="round"/>
<path d="M426.555 294.167C425.154 294.167 422.429 293.322 421.61 293.047L421.433 292.988C419.071 292.153 416.822 291.027 414.739 289.635C413.389 288.747 412.102 287.767 410.888 286.7C406.007 282.334 402.212 276.888 399.805 270.797C397.876 270.636 396.014 270.011 394.379 268.976C392.743 267.94 391.383 266.525 390.412 264.849C389.757 263.382 391.12 260.068 391.12 260.068C389.378 257.939 391.814 255.522 393.34 256.171C391.277 252.987 389.692 250.701 392.03 249.45C393.753 248.527 404.475 255.345 407.095 258.62C409.715 261.895 425.311 274.786 425.311 274.786C431.33 279.535 437.992 294.135 426.555 294.167Z" fill="#FEBD9D"/>
<path d="M425.272 274.772C429.857 278.978 430.611 282.554 430.611 282.554" stroke="#EF8A66" stroke-width="0.49125" stroke-linecap="round" stroke-linejoin="round"/>
<path d="M390.412 264.849C389.757 263.382 391.12 260.068 391.12 260.068C389.378 257.939 391.814 255.522 393.34 256.171C391.277 252.987 389.692 250.701 392.03 249.45C392.771 249.051 395.187 250.105 397.925 251.658" stroke="#EF8A66" stroke-width="0.49125" stroke-linecap="round" stroke-linejoin="round"/>
<path d="M404.626 190.605C404.626 190.605 404.075 197.364 404.508 198.897C404.508 198.897 399.15 202.598 397.041 201.713C396.958 201.679 396.881 201.633 396.811 201.576C394.846 200.082 393.766 190.441 393.766 190.441C393.766 190.441 386.233 189.426 384.792 186.157C384.792 186.157 378.701 187.068 380.207 182.175C379.656 182.413 379.065 182.544 378.465 182.561C378.102 182.595 377.74 182.488 377.453 182.263C377.167 182.037 376.978 181.71 376.926 181.349C376.506 179.24 382.388 178.729 382.388 178.729C381.006 175.697 385.048 173.679 389.03 177.531C387.589 175.389 389.469 173.784 393.314 175.179C397.532 176.712 401.39 180.871 400.44 183.694C400.44 183.694 404.154 183.57 406.165 186.02C408.516 188.882 406.04 190.323 404.626 190.605Z" fill="#7F542D"/>
<path d="M396.811 201.595C394.846 200.102 393.766 190.46 393.766 190.46C393.766 190.46 386.233 189.445 384.792 186.177C384.792 186.177 378.701 187.087 380.207 182.194C379.656 182.432 379.065 182.563 378.465 182.581C379.42 181.983 380.494 181.602 381.612 181.463C382.729 181.323 383.864 181.43 384.936 181.775C390.071 183.622 392.737 184.33 394.25 183.046C395.763 181.762 399.49 183.406 398.056 187.251C396.621 191.096 400.748 187.709 401.508 192.386C402.038 195.713 398.731 199.637 396.811 201.595Z" fill="#704725"/>
<path d="M398.514 187.126C400.597 187.094 402.611 187.871 404.134 189.294" stroke="#A56F42" stroke-width="0.49125" stroke-linecap="round" stroke-linejoin="round"/>
<path d="M398.789 189.039C400.826 190.552 401.586 193.441 401.56 195.314" stroke="#A56F42" stroke-width="0.49125" stroke-linecap="round" stroke-linejoin="round"/>
<path d="M402.038 207.065C402.038 207.065 401.383 213.091 402.038 215.442C402.038 215.442 399.817 226.787 391.473 227.363C387.209 227.651 385.119 224.992 384.11 222.313C383.51 220.674 383.18 218.949 383.134 217.204C383.134 217.204 378.15 217.663 375.006 211.794C374.036 209.973 373.571 207.379 373.637 204.242C373.679 202.601 373.841 200.966 374.122 199.349C375.239 193.342 377.29 187.547 380.2 182.175C380.298 184.605 382.872 185.522 386.095 184.068C386.095 184.068 385.663 188.188 391.335 186.589C391.335 186.589 391.112 189.118 394.734 187.998C399.005 186.688 395.154 194.207 398.802 199.133C398.802 199.133 402.47 195.137 405.653 197.633C409.655 200.757 405.483 206.24 402.038 207.065Z" fill="#FEBD9D"/>
<path d="M399.955 201.635C401.265 199.801 404.304 198.504 405.765 201.124" stroke="#EF8A66" stroke-width="0.49125" stroke-linecap="round" stroke-linejoin="round"/>
<path d="M399.504 203.214C402.543 205.009 403.48 200.64 400.611 200.908" stroke="#EF8A66" stroke-width="0.49125" stroke-linecap="round" stroke-linejoin="round"/>
<path d="M379.173 205.61C380.305 205.934 381.516 205.831 382.577 205.322C383.638 204.812 384.475 203.931 384.93 202.846" stroke="#EF8A66" stroke-width="0.49125" stroke-linecap="round" stroke-linejoin="round"/>
<path d="M402.038 207.065C400.738 207.264 399.41 207.015 398.271 206.357" stroke="#EF8A66" stroke-width="0.49125" stroke-linecap="round" stroke-linejoin="round"/>
<path d="M391.938 206.642C394.024 205.881 395.341 204.236 394.878 202.968C394.415 201.701 392.349 201.29 390.262 202.052C388.176 202.813 386.859 204.458 387.322 205.726C387.785 206.993 389.851 207.404 391.938 206.642Z" fill="#F4AF90"/>
<path d="M377.063 203.05C376.69 204.078 375.269 204.537 373.638 204.275C373.68 202.634 373.842 200.999 374.122 199.382C376.212 200.109 377.522 201.74 377.063 203.05Z" fill="#F4AF90"/>
<path d="M377.469 199.833C376.929 199.994 376.369 200.075 375.805 200.075C374.673 200.079 373.564 199.757 372.611 199.147C371.657 198.537 370.899 197.666 370.428 196.637" stroke="#683F1D" stroke-width="0.655" stroke-linecap="round" stroke-linejoin="round"/>
<path d="M381.602 193.035C381.67 193.409 381.706 193.788 381.707 194.168C381.71 194.551 381.673 194.933 381.596 195.308" stroke="#683F1D" stroke-width="0.655" stroke-linecap="round" stroke-linejoin="round"/>
<path d="M377.725 195.596C378.242 195.596 378.661 195.177 378.661 194.659C378.661 194.142 378.242 193.723 377.725 193.723C377.207 193.723 376.788 194.142 376.788 194.659C376.788 195.177 377.207 195.596 377.725 195.596Z" fill="#683F1D"/>
<path d="M384.32 196.853C384.319 197.04 384.373 197.223 384.476 197.378C384.579 197.534 384.726 197.656 384.898 197.729C385.07 197.801 385.26 197.821 385.443 197.785C385.627 197.749 385.796 197.66 385.928 197.529C386.061 197.397 386.151 197.229 386.188 197.046C386.225 196.863 386.207 196.673 386.136 196.5C386.064 196.327 385.943 196.179 385.788 196.075C385.633 195.972 385.45 195.916 385.264 195.916C385.14 195.915 385.017 195.939 384.903 195.985C384.789 196.032 384.685 196.101 384.597 196.188C384.509 196.275 384.44 196.379 384.392 196.493C384.345 196.607 384.32 196.729 384.32 196.853Z" fill="#683F1D"/>
<path d="M384.32 193.723C383.207 194.496 382.27 195.17 381.491 195.766C379.107 197.581 378.157 198.694 377.973 199.657C377.836 200.397 378.157 201.059 378.628 201.871" stroke="#EF8A66" stroke-width="0.49125" stroke-linecap="round" stroke-linejoin="round"/>
<path d="M385.899 188.849C386.37 187.925 389.049 189.622 389.691 190.925C390.333 192.229 385.1 190.401 385.899 188.849Z" fill="#7F542D"/>
<path d="M378.203 187.487C377.548 188.175 381.74 189.079 382.244 188.011C382.749 186.943 379.31 186.367 378.203 187.487Z" fill="#7F542D"/>
<path d="M384.929 200.017C384.929 200.116 384.89 200.211 384.82 200.281C384.75 200.351 384.655 200.39 384.556 200.39C384.457 200.389 384.363 200.349 384.294 200.279C384.224 200.209 384.184 200.115 384.183 200.017C384.183 199.968 384.192 199.919 384.211 199.874C384.23 199.829 384.257 199.788 384.292 199.753C384.327 199.718 384.368 199.691 384.413 199.672C384.458 199.653 384.507 199.644 384.556 199.644C384.605 199.643 384.654 199.652 384.7 199.67C384.746 199.689 384.787 199.716 384.822 199.751C384.857 199.786 384.884 199.827 384.903 199.873C384.921 199.919 384.93 199.968 384.929 200.017Z" fill="#F4AF90"/>
<path d="M376.212 199.001C376.212 199.075 376.189 199.148 376.148 199.209C376.107 199.271 376.048 199.319 375.98 199.347C375.911 199.375 375.836 199.382 375.763 199.367C375.69 199.352 375.624 199.316 375.572 199.263C375.52 199.21 375.485 199.143 375.471 199.07C375.458 198.997 375.466 198.922 375.495 198.854C375.524 198.786 375.573 198.728 375.636 198.688C375.698 198.647 375.771 198.627 375.845 198.628C375.893 198.628 375.942 198.638 375.987 198.657C376.032 198.675 376.072 198.703 376.106 198.738C376.141 198.772 376.167 198.814 376.186 198.859C376.204 198.904 376.212 198.953 376.212 199.001Z" fill="#F4AF90"/>
<path d="M377.528 197.423C377.528 197.522 377.489 197.617 377.419 197.687C377.349 197.757 377.254 197.797 377.155 197.797C377.056 197.797 376.961 197.757 376.891 197.687C376.821 197.617 376.781 197.522 376.781 197.423C376.781 197.324 376.821 197.229 376.891 197.159C376.961 197.089 377.056 197.05 377.155 197.05C377.254 197.05 377.349 197.089 377.419 197.159C377.489 197.229 377.528 197.324 377.528 197.423Z" fill="#F4AF90"/>
<path d="M386.653 200.016C386.859 200.016 387.026 199.849 387.026 199.643C387.026 199.437 386.859 199.27 386.653 199.27C386.446 199.27 386.279 199.437 386.279 199.643C386.279 199.849 386.446 200.016 386.653 200.016Z" fill="#F4AF90"/>
<path d="M390.491 200.895C390.489 200.993 390.449 201.087 390.38 201.157C390.31 201.227 390.216 201.267 390.118 201.268C390.018 201.268 389.924 201.229 389.854 201.159C389.784 201.089 389.744 200.994 389.744 200.895C389.743 200.846 389.752 200.797 389.771 200.751C389.789 200.705 389.817 200.664 389.852 200.629C389.886 200.594 389.928 200.567 389.974 200.548C390.019 200.53 390.068 200.521 390.118 200.522C390.217 200.522 390.312 200.561 390.382 200.631C390.452 200.701 390.491 200.796 390.491 200.895Z" fill="#F4AF90"/>
<path d="M388.728 201.235C388.728 201.284 388.718 201.332 388.7 201.377C388.681 201.422 388.653 201.463 388.618 201.497C388.584 201.531 388.542 201.558 388.497 201.576C388.452 201.594 388.403 201.603 388.355 201.602C388.281 201.602 388.208 201.58 388.147 201.539C388.085 201.497 388.037 201.439 388.009 201.37C387.981 201.302 387.974 201.226 387.989 201.154C388.004 201.081 388.04 201.014 388.093 200.962C388.146 200.911 388.213 200.876 388.286 200.862C388.359 200.848 388.434 200.857 388.502 200.886C388.57 200.915 388.628 200.964 388.668 201.026C388.709 201.088 388.729 201.161 388.728 201.235Z" fill="#F4AF90"/>
<path d="M386.652 201.87C386.659 201.923 386.654 201.976 386.639 202.027C386.624 202.078 386.598 202.125 386.562 202.165C386.527 202.205 386.484 202.237 386.436 202.259C386.387 202.281 386.335 202.293 386.282 202.293C386.228 202.293 386.176 202.281 386.127 202.259C386.079 202.237 386.036 202.205 386.001 202.165C385.966 202.125 385.94 202.078 385.924 202.027C385.909 201.976 385.904 201.923 385.911 201.87C385.904 201.817 385.909 201.764 385.924 201.713C385.94 201.662 385.966 201.615 386.001 201.575C386.036 201.535 386.079 201.503 386.127 201.481C386.176 201.459 386.228 201.447 386.282 201.447C386.335 201.447 386.387 201.459 386.436 201.481C386.484 201.503 386.527 201.535 386.562 201.575C386.598 201.615 386.624 201.662 386.639 201.713C386.654 201.764 386.659 201.817 386.652 201.87Z" fill="#F4AF90"/>
<path d="M369.891 194.168C369.879 192.995 370.217 191.846 370.861 190.867C371.506 189.887 372.427 189.122 373.509 188.669C374.59 188.217 375.782 188.096 376.932 188.324C378.082 188.552 379.138 189.118 379.965 189.949" stroke="#683F1D" stroke-width="0.655" stroke-linecap="round" stroke-linejoin="round"/>
<path d="M387.615 204.537C390.878 204.537 393.523 201.892 393.523 198.629C393.523 195.366 390.878 192.721 387.615 192.721C384.352 192.721 381.707 195.366 381.707 198.629C381.707 201.892 384.352 204.537 387.615 204.537Z" stroke="#683F1D" stroke-width="0.655" stroke-linecap="round" stroke-linejoin="round"/>
<path d="M393.522 198.629L398.789 199.107" stroke="#683F1D" stroke-width="0.655" stroke-linecap="round" stroke-linejoin="round"/>
<path d="M390.798 214.25C390.798 214.25 390.628 220.8 384.111 222.313C383.51 220.674 383.181 218.949 383.135 217.204C385.277 217.106 389.6 215.593 390.798 214.25Z" fill="#F4A789"/>
<path d="M390.995 178.945C394.342 179.666 397.683 182.174 397.683 184.447" stroke="#A56F42" stroke-width="0.49125" stroke-linecap="round" stroke-linejoin="round"/>
<path d="M384.93 180.282C389.233 180.846 394.794 183.007 396.72 185.738" stroke="#A56F42" stroke-width="0.49125" stroke-linecap="round" stroke-linejoin="round"/>
<path d="M357.492 276.409C357.099 283.823 346.567 294.913 335.589 271.765C329.877 259.726 329.229 243.868 327.205 231.207C326.448 227.468 325.146 223.859 323.341 220.498C321.205 216.797 315.782 208.747 317.505 208.171C319.227 207.595 324.245 213.411 324.245 213.411C324.245 213.411 318.408 201.457 320.629 200.933C322.849 200.409 328.109 211.073 328.109 211.073C325.974 201.706 325.391 197.029 327.316 196.859C328.947 196.715 331.436 206.239 332.936 210.306C333.487 211.8 334.318 211.21 334.246 209.972C334.174 208.734 332.144 196.8 335.556 199.682C337.914 201.686 339.827 216.398 339.827 216.398C339.827 216.398 341.255 215.363 342.447 212.003C343.436 209.252 346.311 209.756 345.722 215.003C345.132 220.249 341.039 227.448 341.039 227.448C340.875 231.063 344.569 241.858 346.128 245.034C347.687 248.211 353.7 261.815 353.7 261.815C353.7 261.815 357.898 268.68 357.492 276.409Z" fill="#FEBD9D"/>
<path d="M321.133 216.804C318.827 213.005 316.24 208.558 317.504 208.132C319.233 207.555 324.244 213.372 324.244 213.372C324.244 213.372 318.408 201.418 320.629 200.894C322.849 200.37 328.109 211.033 328.109 211.033C325.973 201.667 325.391 196.99 327.316 196.82C328.947 196.676 331.436 206.2 332.936 210.267C333.486 211.761 334.318 211.171 334.246 209.933C334.174 208.695 332.144 196.761 335.556 199.643C337.914 201.647 339.827 216.359 339.827 216.359C339.827 216.359 341.255 215.324 342.447 211.964C343.436 209.213 346.311 209.717 345.722 214.963C345.427 217.669 344.182 220.891 343.056 223.38" stroke="#EF8A66" stroke-width="0.49125" stroke-linecap="round" stroke-linejoin="round"/>
<path d="M326.189 213.281C328.351 211.722 332.248 211.552 332.248 211.552" stroke="#EF8A66" stroke-width="0.49125" stroke-linecap="round" stroke-linejoin="round"/>
<path d="M339.773 216.358C339.773 216.358 335.313 215.703 333.977 220.131" stroke="#EF8A66" stroke-width="0.49125" stroke-linecap="round" stroke-linejoin="round"/>
<path d="M357.714 273.135C356.765 269.235 355.42 265.442 353.699 261.816" stroke="#EF8A66" stroke-width="0.49125" stroke-linecap="round" stroke-linejoin="round"/>
<path d="M340.481 212.416C340.481 212.416 344.922 215.036 344.922 214.866C344.922 214.695 351.001 203.646 351.001 203.646L345.034 200.895L340.481 212.416Z" stroke="#DDDDDD" stroke-width="0.655" stroke-linecap="round" stroke-linejoin="round"/>
<path d="M332.261 204.078L339.774 202.231L336.873 186.295L328.875 188.031L332.261 204.078Z" stroke="#DDDDDD" stroke-width="0.655" stroke-linecap="round" stroke-linejoin="round"/>
<path d="M318.742 186.976L327.048 185.345L330.388 200.298L323.576 201.451L318.742 186.976Z" stroke="#DDDDDD" stroke-width="0.655" stroke-linecap="round" stroke-linejoin="round"/>
<path d="M306.186 202.224L313.129 196.82L320.877 209.036L315.31 213.372L306.186 202.224Z" stroke="#DDDDDD" stroke-width="0.655" stroke-linecap="round" stroke-linejoin="round"/>
<path d="M250.498 297.612C246.49 305.177 242.756 322.358 241.243 330.1C241.243 330.1 254.343 335.261 275.146 334.547C295.949 333.834 300.154 330.185 300.154 330.185C300.154 330.185 302.649 305.538 296.06 295.123L250.498 297.612Z" fill="#FED81D"/>
<mask id="mask1_1518_433" style="mask-type:luminance" maskUnits="userSpaceOnUse" x="241" y="295" width="60" height="40">
<path d="M250.499 297.612C246.491 305.177 242.757 322.358 241.244 330.1C241.244 330.1 254.344 335.261 275.147 334.547C295.95 333.834 300.155 330.185 300.155 330.185C300.155 330.185 302.65 305.538 296.061 295.123L250.499 297.612Z" fill="white"/>
</mask>
<g mask="url(#mask1_1518_433)">
<path d="M300.686 300.782H297.312V304.155H300.686V300.782Z" stroke="white" stroke-width="0.49125" stroke-linecap="round" stroke-linejoin="round"/>
<path d="M284.258 300.782H280.885V304.155H284.258V300.782Z" stroke="white" stroke-width="0.49125" stroke-linecap="round" stroke-linejoin="round"/>
<path d="M267.831 300.782H264.458V304.155H267.831V300.782Z" stroke="white" stroke-width="0.49125" stroke-linecap="round" stroke-linejoin="round"/>
<path d="M251.397 300.782H248.023V304.155H251.397V300.782Z" stroke="white" stroke-width="0.49125" stroke-linecap="round" stroke-linejoin="round"/>
<path d="M300.686 321.631H297.312V325.004H300.686V321.631Z" stroke="white" stroke-width="0.49125" stroke-linecap="round" stroke-linejoin="round"/>
<path d="M284.258 321.631H280.885V325.004H284.258V321.631Z" stroke="white" stroke-width="0.49125" stroke-linecap="round" stroke-linejoin="round"/>
<path d="M267.831 321.631H264.458V325.004H267.831V321.631Z" stroke="white" stroke-width="0.49125" stroke-linecap="round" stroke-linejoin="round"/>
<path d="M251.397 321.631H248.023V325.004H251.397V321.631Z" stroke="white" stroke-width="0.49125" stroke-linecap="round" stroke-linejoin="round"/>
<path d="M243.858 288.671H237.118V295.411H243.858V288.671Z" stroke="white" stroke-width="0.49125" stroke-linecap="round" stroke-linejoin="round"/>
<path d="M260.691 288.672H253.951V295.412H260.691V288.672Z" stroke="white" stroke-width="0.49125" stroke-linecap="round" stroke-linejoin="round"/>
<path d="M277.524 288.672H270.784V295.412H277.524V288.672Z" stroke="white" stroke-width="0.49125" stroke-linecap="round" stroke-linejoin="round"/>
<path d="M294.358 288.671H287.618V295.411H294.358V288.671Z" stroke="white" stroke-width="0.49125" stroke-linecap="round" stroke-linejoin="round"/>
<path d="M243.858 309.52H237.118V316.259H243.858V309.52Z" stroke="white" stroke-width="0.49125" stroke-linecap="round" stroke-linejoin="round"/>
<path d="M260.691 309.52H253.951V316.259H260.691V309.52Z" stroke="white" stroke-width="0.49125" stroke-linecap="round" stroke-linejoin="round"/>
<path d="M277.524 309.52H270.784V316.259H277.524V309.52Z" stroke="white" stroke-width="0.49125" stroke-linecap="round" stroke-linejoin="round"/>
<path d="M294.358 309.52H287.618V316.259H294.358V309.52Z" stroke="white" stroke-width="0.49125" stroke-linecap="round" stroke-linejoin="round"/>
<path d="M243.858 330.369H237.118V337.109H243.858V330.369Z" stroke="white" stroke-width="0.49125" stroke-linecap="round" stroke-linejoin="round"/>
<path d="M260.691 330.369H253.951V337.109H260.691V330.369Z" stroke="white" stroke-width="0.49125" stroke-linecap="round" stroke-linejoin="round"/>
<path d="M277.524 330.369H270.784V337.109H277.524V330.369Z" stroke="white" stroke-width="0.49125" stroke-linecap="round" stroke-linejoin="round"/>
<path d="M294.358 330.369H287.618V337.109H294.358V330.369Z" stroke="white" stroke-width="0.49125" stroke-linecap="round" stroke-linejoin="round"/>
</g>
<path d="M255.967 292.13C255.967 292.13 247.721 298.981 247.289 299.774C241.885 308.4 225.877 315.297 218.285 306.173C208.604 294.527 229.368 284.925 229.368 284.925C229.368 284.925 231.333 280.949 231.398 280.681L252.961 284.925L255.967 292.13Z" fill="#FEBD9D"/>
<path d="M304.824 256.609C304.254 260.873 300.632 286.824 298.83 292.752C297.029 298.68 292.975 300.487 290.662 300.487C289.267 300.487 283.739 300.671 277.169 300.913C272.86 301.064 268.098 301.254 263.775 301.424C252.856 301.856 247.288 299.767 247.288 299.767L247.537 299.302L252.279 290.577C248.888 291.27 245.397 291.33 241.983 290.754C241.099 290.6 240.224 290.397 239.363 290.145C235.479 289.018 232.551 285.737 230.782 283.176C230.039 282.11 229.382 280.986 228.817 279.816C231.725 272.836 235.045 266.036 238.76 259.452C241.727 254.271 244.059 250.976 245.153 249.882C247.321 247.721 253.897 245.769 259.629 244.59L270.017 241.786C270.017 241.786 276.888 224.658 276.888 224.442C276.888 224.226 298.352 218.593 298.352 218.593C302.367 226.771 304.742 235.656 305.341 244.747C305.57 248.708 305.397 252.683 304.824 256.609Z" fill="#C3DCF8"/>
<path d="M277.17 300.914C272.86 301.064 268.098 301.254 263.775 301.425C252.857 301.857 247.289 299.767 247.289 299.767L247.538 299.302L252.28 290.578C255.572 284.016 258.47 277.264 260.959 270.358C261.011 270.201 261.077 270.05 261.129 269.899C262.05 271.633 262.502 273.577 262.439 275.539C262.302 280.648 252.693 294.089 260.003 297.102C267.07 299.99 272.539 295.078 277.17 300.914Z" fill="#A7CAF0"/>
<path d="M305.308 244.747C301.915 247.642 298.031 251.848 297.16 256.492C295.529 265.124 283.765 273.377 271.667 263.408C261.587 255.103 253.707 252.856 238.728 259.478C241.695 254.297 244.026 251.003 245.12 249.909C247.288 247.747 253.865 245.795 259.596 244.616L269.984 241.813C269.984 241.813 272.087 205.343 272.087 205.133C272.087 204.923 295.713 210.255 295.713 210.255C300.645 220.486 304.902 237.903 305.308 244.747Z" fill="#D0E5F7"/>
<path d="M286.359 241.787C287.999 241.634 289.614 241.28 291.167 240.732" stroke="#83ADDF" stroke-width="0.49125" stroke-linecap="round" stroke-linejoin="round"/>
<path d="M252.28 290.578C255.572 284.016 258.47 277.264 260.959 270.358C261.011 270.2 261.077 270.05 261.129 269.899C261.566 268.663 262.003 267.401 262.439 266.113" stroke="#83ADDF" stroke-width="0.49125" stroke-linecap="round" stroke-linejoin="round"/>
<path d="M218.298 306.187C211.126 298.687 208.519 285.81 206.928 279.653C204.963 272.14 201.275 251.023 200.83 247.84C200.384 244.656 202.605 234.674 202.605 234.674C204.746 233.881 208.644 235.401 212.43 237.405L211.532 241.257C211.373 243.684 210.797 246.066 209.829 248.298C210.964 249.164 211.911 250.251 212.613 251.494L219.995 249.529C218.456 253.571 216.72 258.49 216.759 260.009C216.844 262.773 219.32 269.094 222.058 273.155C224.796 277.216 229.368 284.926 229.368 284.926C243.326 300.069 233.56 318.534 218.298 306.187Z" fill="#FEBD9D"/>
<path d="M202.584 234.654C202.584 234.654 200.377 244.643 200.816 247.82" stroke="#EF8A66" stroke-width="0.49125" stroke-linecap="round" stroke-linejoin="round"/>
<path d="M204.622 220.467C204.622 220.467 207.386 238.355 208.336 244.656C200.607 245.553 197.41 233.999 203.285 229.958C197.973 226.519 197.829 216.248 204.504 214.965C202.912 209.679 211.054 203.011 216.831 206.784C218.704 199.945 229.027 199.651 232.649 205.349L206.737 212.22L207.248 219.641C206.325 219.923 205.427 220.198 204.622 220.467Z" fill="#DDDDDD"/>
<path d="M209.115 246.725L209.495 252.286L238.734 244.59C238.734 244.59 240.28 231.647 235.328 206.639C235.21 205.984 235.086 205.388 234.948 204.746L232.649 205.349L230.592 205.899L206.737 212.22L207.248 219.641" fill="#EDEDED"/>
<path d="M209.115 246.725L209.495 252.286L238.734 244.59C238.734 244.59 240.28 231.647 235.328 206.639C235.21 205.984 235.086 205.388 234.948 204.746L232.649 205.349L230.592 205.899L206.737 212.22L207.248 219.641" stroke="#DDDDDD" stroke-width="0.655" stroke-linecap="round" stroke-linejoin="round"/>
<path d="M230.154 239.586C230.154 239.586 208.644 247.151 208.644 246.791C208.644 246.732 208.519 245.933 208.336 244.643C207.386 238.342 204.622 220.454 204.622 220.454C205.428 220.185 206.305 219.91 207.242 219.622C214.873 217.31 226.008 214.513 226.008 214.513L230.154 239.586Z" fill="#DDDDDD"/>
<path d="M209.797 225.333L221.299 222.497" stroke="white" stroke-width="0.655" stroke-linecap="round" stroke-linejoin="round"/>
<path d="M210.602 229.899L223.826 226.905" stroke="white" stroke-width="0.655" stroke-linecap="round" stroke-linejoin="round"/>
<path d="M213.13 234.438L221.298 232.473" stroke="white" stroke-width="0.655" stroke-linecap="round" stroke-linejoin="round"/>
<path d="M202.133 248.173C204.268 243.588 209.089 238.519 210.91 239.789C212.731 241.06 209.796 248.304 209.796 248.304C212.145 250.143 213.68 252.828 214.073 255.784C214.073 255.784 203.947 259.957 202.133 248.173Z" fill="#FEBD9D"/>
<path d="M202.133 248.173C204.268 243.588 209.089 238.519 210.91 239.789C212.731 241.06 209.796 248.304 209.796 248.304C212.145 250.143 213.68 252.828 214.073 255.784" stroke="#EF8A66" stroke-width="0.49125" stroke-linecap="round" stroke-linejoin="round"/>
<path d="M258.509 158.667C256.315 151.613 254.959 146.752 253.662 143.471C251.861 138.886 254.029 136.22 257.245 143.124C258.666 146.183 260.369 149.936 260.369 149.936C260.369 149.936 265.753 149.019 268.229 151.043C270.705 153.067 272.539 157.796 273.286 165.728C273.286 165.728 278.768 176.902 280.628 180.996C282.489 185.09 291.377 203.082 295.693 210.268C299.682 221.625 275.572 230.671 272.068 205.106C272.068 205.106 267.862 192.229 266.906 187.421C265.95 182.614 262.007 169.278 262.007 169.278C262.007 169.278 255.358 162.466 254.559 161.418C253.76 160.37 250.629 152.32 251.939 151.783C253.249 151.246 255.345 152.85 256.944 157.855L258.509 158.667Z" fill="#FEBD9D"/>
<path d="M254.578 161.418C253.786 160.35 250.648 152.32 251.958 151.783C253.268 151.246 255.364 152.85 256.963 157.855L258.495 158.667C256.301 151.613 254.945 146.752 253.648 143.471C251.847 138.886 254.015 136.22 257.231 143.124C258.653 146.183 260.356 149.936 260.356 149.936C260.356 149.936 264.22 149.281 266.906 150.303" stroke="#EF8A66" stroke-width="0.49125" stroke-linecap="round" stroke-linejoin="round"/>
<path d="M260.369 149.936L261.725 153.06" stroke="#EF8A66" stroke-width="0.49125" stroke-linecap="round" stroke-linejoin="round"/>
<path d="M263.69 149.746L265.059 152.772" stroke="#EF8A66" stroke-width="0.49125" stroke-linecap="round" stroke-linejoin="round"/>
<path d="M266.795 150.237L268.164 153.27" stroke="#EF8A66" stroke-width="0.49125" stroke-linecap="round" stroke-linejoin="round"/>
<path d="M290.774 209.187C295.162 207.812 298.634 208.441 299.872 213.668C301.11 218.894 295.346 223.493 289.464 222.307L290.774 209.187Z" fill="#B57724"/>
<path d="M293.905 214.525C293.82 216.07 293.52 217.596 293.015 219.058C291.681 222.69 289.383 225.89 286.366 228.313L283.746 232.688C283.746 232.688 264.195 236.691 264.476 206.069C262.629 203.816 263.219 198.864 268.603 194.934C276.633 189.118 289.936 195.956 287.892 205.251C287.873 205.251 294.377 205.087 293.905 214.525Z" fill="#BF8228"/>
<path d="M266.14 204.687C264.994 200.757 268.636 196.303 269.9 195.668" stroke="#9B621F" stroke-width="0.49125" stroke-linecap="round" stroke-linejoin="round"/>
<path d="M293.014 219.058C291.681 222.69 289.382 225.89 286.366 228.313L283.746 232.689C283.746 232.689 264.194 236.691 264.476 206.069L271.026 197.057C270.868 197.437 268.242 209.901 272.991 220.951C276.96 230.239 289.608 224.095 293.014 219.058Z" fill="#B57724"/>
<path d="M286.36 228.326C285.17 231.96 284.575 235.762 284.598 239.586C278.401 242.736 272.12 243.463 265.714 240.745C265.714 240.745 266.061 238.839 266.297 236.763C266.467 235.48 266.535 234.185 266.5 232.892C261.116 232.964 257.487 228.778 257.363 222.628C257.338 220.59 257.632 218.562 258.234 216.615C258.532 215.622 258.89 214.649 259.308 213.7C259.308 213.7 258.044 212.194 258.221 211.047C258.398 209.901 262.02 208.146 262.02 208.146C265.216 201.923 271.02 197.011 271.02 197.011C271.02 197.011 266.644 202.356 267.81 210.975C267.81 210.975 272.441 207.844 273.417 213.307C274.242 217.925 270.587 220.25 269.264 220.925C269.124 221 268.979 221.068 268.832 221.128C268.832 221.128 269.985 229.328 277.609 230.455C279.135 230.729 280.702 230.681 282.209 230.315C283.716 229.948 285.13 229.271 286.36 228.326Z" fill="#FEBD9D"/>
<path d="M264.836 208.656C265.353 208.656 265.773 208.237 265.773 207.72C265.773 207.203 265.353 206.783 264.836 206.783C264.319 206.783 263.899 207.203 263.899 207.72C263.899 208.237 264.319 208.656 264.836 208.656Z" fill="#683F1D"/>
<path d="M280.51 205.499C286.674 203.534 288.37 214.964 286.006 219.254C283.988 222.903 275.178 222.235 274.406 215.717C273.633 209.2 279.095 205.951 280.51 205.499Z" fill="#B57724"/>
<path d="M279.737 208.395C280.91 206.43 282.79 207.006 283.772 208.467C284.755 209.927 285.678 214.139 282.423 214.493C278.427 214.925 278.414 210.609 279.737 208.395Z" fill="#BF8228"/>
<path d="M266.323 214.964C267.954 212.829 270.338 212.711 271.203 213.896" stroke="#EF8A66" stroke-width="0.49125" stroke-linecap="round" stroke-linejoin="round"/>
<path d="M266.618 214.61C270.135 213.746 269.664 219.595 265.629 217.538" stroke="#EF8A66" stroke-width="0.49125" stroke-linecap="round" stroke-linejoin="round"/>
<path d="M269.271 220.951C268.007 221.392 266.644 221.464 265.341 221.161" stroke="#EF8A66" stroke-width="0.49125" stroke-linecap="round" stroke-linejoin="round"/>
<path d="M279.404 206.023C279.404 206.023 273.705 213.091 278.048 216.608C282.391 220.126 285.463 215.527 285.463 215.527" stroke="#9B621F" stroke-width="0.49125" stroke-linecap="round" stroke-linejoin="round"/>
<path d="M276.05 206.784C274.323 204.264 273.229 201.366 272.86 198.334" stroke="#9B621F" stroke-width="0.49125" stroke-linecap="round" stroke-linejoin="round"/>
<path d="M266.369 202.801C267.182 201.7 269.494 203.934 269.494 205.801C269.494 206.744 265.105 204.517 266.369 202.801Z" fill="#BF8228"/>
<path d="M271.026 197.036C271.026 197.036 281.199 191.462 286.661 206.023" stroke="#9B621F" stroke-width="0.49125" stroke-linecap="round" stroke-linejoin="round"/>
<path d="M274.681 198.02C276.94 199.447 280.346 203.915 280.346 203.915" stroke="#9B621F" stroke-width="0.49125" stroke-linecap="round" stroke-linejoin="round"/>
<path d="M280.537 207.497C280.209 209.056 278.631 213.562 284.192 213.143" stroke="#9B621F" stroke-width="0.49125" stroke-linecap="round" stroke-linejoin="round"/>
<path d="M293.237 218.364C293.237 218.364 299.178 215.593 297.685 211.041" stroke="#9B621F" stroke-width="0.49125" stroke-linecap="round" stroke-linejoin="round"/>
<path d="M293.885 212.41C294.874 212.102 295.955 210.071 295.955 210.071" stroke="#9B621F" stroke-width="0.49125" stroke-linecap="round" stroke-linejoin="round"/>
<path d="M271.857 218.973C273.403 220.283 276.731 227.088 288.717 222.975" stroke="#9B621F" stroke-width="0.49125" stroke-linecap="round" stroke-linejoin="round"/>
<path d="M285.697 208.074C292.175 209.463 291.081 216.255 289.464 218.973" stroke="#9B621F" stroke-width="0.49125" stroke-linecap="round" stroke-linejoin="round"/>
<path d="M260.251 216.275C260.52 217.382 261.909 217.997 263.356 217.644C264.804 217.29 265.747 216.111 265.478 215.024C265.21 213.936 263.815 213.301 262.374 213.655C260.933 214.009 259.983 215.168 260.251 216.275Z" fill="#F4AF90"/>
<path d="M273.901 226.57C277.831 228.994 284.814 228.581 289.183 225.588" stroke="#9B621F" stroke-width="0.49125" stroke-linecap="round" stroke-linejoin="round"/>
<path d="M271.203 198.714C270.548 202.415 271.412 208.041 272.349 209.469" stroke="#9B621F" stroke-width="0.49125" stroke-linecap="round" stroke-linejoin="round"/>
<path d="M272.86 217.512C275.179 219.883 280.825 222.405 285.777 219.621" stroke="#9B621F" stroke-width="0.49125" stroke-linecap="round" stroke-linejoin="round"/>
<path d="M261.535 218.181C261.108 218.869 260.507 219.433 259.793 219.817C259.08 220.201 258.278 220.391 257.468 220.368C257.561 219.486 257.712 218.611 257.92 217.748C257.979 217.512 258.044 217.264 258.116 217.015C259.08 217.799 260.293 218.213 261.535 218.181Z" fill="white" stroke="#EF8A66" stroke-width="0.49125" stroke-linecap="round" stroke-linejoin="round"/>
<path d="M259.314 213.7C259.314 213.7 257.932 211.938 258.227 211.047C258.522 210.156 260.801 208.611 262.026 208.146" stroke="#EF8A66" stroke-width="0.49125" stroke-linecap="round" stroke-linejoin="round"/>
<path d="M271.17 231.392C271.147 232.73 270.637 234.014 269.735 235.003C268.833 235.992 267.601 236.618 266.271 236.763C266.441 235.48 266.509 234.185 266.474 232.892C268.76 233.232 271.17 231.392 271.17 231.392Z" fill="#F4A789"/>
<path d="M154.704 109.856C154.333 109.833 153.963 109.787 153.597 109.719L139.449 128.714L139.037 128.615L129.166 126.166C126.087 127.476 124.764 124.476 125.721 122.275C125.354 122.655 122.956 122.419 124.037 119.93C121.764 120.52 119.786 115.463 122.943 113.924C120.232 114.238 121.299 108.219 124.181 109.339C121.895 107.845 125.236 101.328 129.166 103.49C127.705 101.996 129.906 98.5903 132.441 99.671C130.738 96.8873 137.026 92.073 140.53 96.4353C140.792 94.4703 143.353 93.7826 144.46 95.9179C144.375 93.4354 149.006 92.8328 148.659 96.8611C150.185 94.8961 153.951 98.1121 152.032 100.712C154.207 98.2169 159.152 101.741 156.466 104.701C159.499 105.795 159.23 110.099 154.704 109.856Z" fill="#604730"/>
<path d="M154.705 109.856C154.333 109.833 153.963 109.787 153.598 109.718L139.45 128.713L139.037 128.615L136.777 124.836C130.391 125.32 128.629 120.958 131.151 117.591C129.186 116.648 129.9 110 133.967 110.386C132.86 108.192 135.611 102.055 141.5 104.878C142.155 102.343 146.085 101.288 148.528 104.878C149.543 102.664 155.707 102.559 154.705 109.856Z" fill="#473526"/>
<path d="M149.124 140.307C148.214 149.477 134.432 147.578 135.028 141.447C135.04 138.459 134.788 135.476 134.275 132.532C131 132.368 129.088 131.019 129.199 127.561C129.31 124.102 133.522 121.351 138.061 124.43C138.502 123.298 138.644 122.072 138.473 120.87C138.302 119.667 137.824 118.529 137.085 117.565C134.537 113.97 138.264 109.385 141.723 109.385C145.181 109.385 152.203 109.548 152.098 105.71C154.723 110.113 156.753 114.844 158.137 119.779C158.196 119.982 158.248 120.185 158.301 120.389C158.602 121.554 158.864 122.76 159.067 123.978C159.106 124.201 159.139 124.43 159.178 124.633C159.218 124.836 159.231 124.954 159.25 125.118C160.711 135.008 158.805 141.087 149.124 140.307Z" fill="#B25E47"/>
<path d="M146.654 118.555C146.653 118.742 146.707 118.925 146.811 119.081C146.914 119.237 147.061 119.359 147.234 119.432C147.406 119.504 147.596 119.523 147.78 119.487C147.963 119.451 148.132 119.361 148.264 119.228C148.397 119.096 148.487 118.927 148.523 118.744C148.559 118.56 148.54 118.37 148.468 118.197C148.395 118.025 148.274 117.878 148.117 117.774C147.961 117.671 147.778 117.617 147.591 117.618C147.343 117.62 147.106 117.719 146.931 117.894C146.755 118.07 146.656 118.307 146.654 118.555Z" fill="#683F1D"/>
<path d="M152.975 116.656C152.964 116.786 152.98 116.917 153.023 117.04C153.065 117.163 153.132 117.277 153.221 117.373C153.309 117.469 153.416 117.545 153.536 117.598C153.655 117.65 153.784 117.677 153.915 117.677C154.045 117.677 154.174 117.65 154.294 117.598C154.413 117.545 154.521 117.469 154.609 117.373C154.697 117.277 154.765 117.163 154.807 117.04C154.849 116.917 154.866 116.786 154.855 116.656C154.835 116.42 154.728 116.2 154.553 116.04C154.379 115.88 154.151 115.791 153.915 115.791C153.678 115.791 153.45 115.88 153.276 116.04C153.102 116.2 152.995 116.42 152.975 116.656Z" fill="#683F1D"/>
<path d="M136.777 129.69C134.092 131.111 132.67 127.541 135.893 127.004C135.514 126.744 135.085 126.566 134.634 126.482C134.182 126.399 133.718 126.411 133.271 126.519C132.824 126.626 132.405 126.826 132.041 127.106C131.677 127.386 131.376 127.74 131.157 128.144" stroke="#934735" stroke-width="0.49125" stroke-linecap="round" stroke-linejoin="round"/>
<path d="M150.768 111.671C150.506 113.865 150.454 116.315 150.768 116.655C151.083 116.996 155 119.675 155.497 120.009C155.995 120.343 154.973 121.797 153.395 122.354" stroke="#934735" stroke-width="0.49125" stroke-linecap="round" stroke-linejoin="round"/>
<path d="M149.942 132.159C151.796 133.279 156.106 128.766 154.436 126.998C151.58 123.978 148.56 131.321 149.942 132.159Z" fill="white" stroke="#934735" stroke-width="0.49125" stroke-linecap="round" stroke-linejoin="round"/>
<path d="M141.729 113.439C143.792 110.118 147.126 109.319 147.539 110.557C148.325 112.909 140.039 116.157 141.729 113.439Z" fill="#604730"/>
<path d="M152.202 112.928C152.202 111.657 155.477 113.144 155.831 114.081C156.185 115.017 152.176 114.697 152.202 112.928Z" fill="#604730"/>
<path d="M149.374 125.157C149.046 126.539 147.127 127.273 145.09 126.794C143.053 126.316 141.658 124.829 141.979 123.421C142.3 122.013 144.225 121.305 146.262 121.784C148.299 122.262 149.694 123.794 149.374 125.157Z" fill="#A0503D"/>
<path d="M159.165 124.627C158.748 124.711 158.317 124.682 157.915 124.544C157.513 124.406 157.156 124.163 156.879 123.841C156.073 122.76 156.65 120.985 158.123 119.747C158.182 119.95 158.235 120.153 158.287 120.356C158.588 121.522 158.85 122.727 159.054 123.946C159.106 124.168 159.165 124.398 159.165 124.627Z" fill="#A0503D"/>
<path d="M171.158 301.477H171.191C171.191 301.477 173.922 295.694 169.651 292.753C166.449 290.545 159.368 290.978 158.215 288.934C157.914 288.403 160.685 283.497 164.405 277.386C169.344 269.31 175.959 259.131 179.378 254.225C185.365 245.625 188.692 236.285 178.363 225.32C172.389 220.257 163.58 226.467 158.268 240.713C156.355 245.855 149.399 264.149 146.438 271.891C143.818 278.749 142.01 283.222 141.231 284.526C141.107 284.742 140.956 285.004 140.805 285.286C138.984 288.711 135.565 296.892 137.229 300.429" fill="#B25E47"/>
<path d="M171.191 301.471C171.191 301.471 139.64 304.137 137.229 300.443C134.917 296.899 139.594 287.343 141.232 284.539C142.011 283.229 143.799 278.762 146.439 271.904C152.124 270.987 159.067 271.459 164.405 277.38C160.685 283.491 157.914 288.397 158.216 288.928C159.368 290.971 166.449 290.539 169.652 292.746C173.923 295.687 171.191 301.471 171.191 301.471Z" fill="#683F1D"/>
<path d="M158.746 289.51C156.323 288.509 153.974 287.335 151.718 285.999C148.777 284.211 144.605 284.086 140.825 285.279C140.969 285.003 141.113 284.768 141.231 284.565C142.011 283.255 143.799 278.788 146.439 271.93C152.124 271.013 159.067 271.484 164.405 277.405C160.685 283.517 157.914 288.423 158.215 288.953C158.348 289.177 158.529 289.367 158.746 289.51Z" fill="white"/>
<path d="M160.017 291.92C163.482 287.106 168.866 284.715 168.938 287.584C169.01 290.453 160.907 293.276 160.907 293.276" stroke="#683F1D" stroke-width="0.49125" stroke-linecap="round" stroke-linejoin="round"/>
<path d="M160.017 290.572C159.736 286.543 164.393 280.432 166.43 281.127C169.22 282.083 163.011 288.987 159.14 292.124" stroke="#683F1D" stroke-width="0.49125" stroke-linecap="round" stroke-linejoin="round"/>
<path d="M215.317 95.5906C217.007 89.6956 217.472 83.0801 219.247 82.8312C221.022 82.5823 220.381 87.6323 220.381 87.6323L222.077 89.6432L216.11 96.9399L215.317 95.5906Z" fill="#B25E47"/>
<path d="M216.346 91.3794C217.302 86.9188 217.898 83.0216 219.267 82.8644C221.068 82.6155 220.4 87.6655 220.4 87.6655" stroke="#934735" stroke-width="0.49125" stroke-linecap="round" stroke-linejoin="round"/>
<path d="M238.518 92.787C237.272 93.7298 235.959 94.5792 234.588 95.3284C234.588 95.3284 230.894 103.3 226.237 104.8C226.237 104.8 222.438 116.138 217.722 127.175C213.006 138.211 200.541 148.921 200.541 148.921C183.439 159.335 169.402 138.86 189.865 126.415C191.974 125.033 193.948 123.454 195.76 121.699C207.117 110.465 225.038 79.9949 226.826 77.2439C228.614 74.4929 230.291 75.0955 228.857 79.2744C227.475 83.3288 226.42 86.4794 226.361 86.6824C226.643 86.3942 233.959 79.0517 235.531 77.722C236.998 76.5037 239.238 77.6041 236.605 81.5472C239.225 78.1412 241.734 78.5211 239.225 83.3419C237.673 86.3222 234.057 90.9399 233.835 91.2019C234.182 91.0251 240.031 87.9662 241.695 88.3134C243.358 88.6605 241.112 90.9137 238.518 92.787Z" fill="#B25E47"/>
<path d="M219.176 89.5712C223.197 83.2046 226.145 78.2593 226.82 77.2244C228.614 74.48 230.285 75.076 228.85 79.2549C227.468 83.3094 226.414 86.4599 226.355 86.663C226.636 86.3748 233.953 79.0322 235.525 77.7026C236.992 76.4843 239.232 77.5847 236.599 81.5278C239.219 78.1218 241.727 78.5017 239.219 83.3225C237.666 86.3027 234.051 90.9205 233.828 91.1825C234.175 91.0056 240.024 87.9468 241.688 88.2939C243.352 88.6411 241.033 90.9139 238.452 92.7545C237.207 93.6973 235.893 94.5467 234.522 95.2959" stroke="#934735" stroke-width="0.49125" stroke-linecap="round" stroke-linejoin="round"/>
<path d="M236.618 81.5273C233.808 85.4573 229.747 90.1144 229.747 90.1144" stroke="#934735" stroke-width="0.49125" stroke-linecap="round" stroke-linejoin="round"/>
<path d="M93.1145 262.314C92.6757 264.528 95.3415 268.595 102.212 270.403L103.968 258.004C100.031 258.45 96.2845 259.937 93.1145 262.314Z" fill="#83ADDF"/>
<path d="M100.026 258.004C99.7835 271.261 99.0433 276.547 99.0433 277.405C99.0433 277.405 90.2008 300.134 87.6201 318.441C87.6201 318.441 92.7815 327.532 108.017 323.727C108.017 323.727 119.198 292.287 121.529 284.04C123.861 275.794 124.235 264.2 124.235 264.2L100.026 258.004Z" fill="#B25E47"/>
<path d="M87.5938 176.47C87.9406 177.507 88.4929 178.463 89.2177 179.281C89.9425 180.099 90.8248 180.763 91.812 181.232L95.3228 175.9C92.7504 175.275 90.0465 175.474 87.5938 176.47Z" fill="#F7AD2B"/>
<path d="M93.0431 174.125C87.0302 182.764 80.6701 192.858 83.3622 201.013C86.0542 209.168 100.713 210.89 109.693 201.013L112.968 178.389L93.0431 174.125Z" fill="#B25E47"/>
<path d="M107.997 194.738C104.237 203.908 97.8378 229.034 93.1152 262.315C93.1152 262.315 114.318 261.005 124.712 268.786C125.007 268.295 130.208 238.001 130.797 236.907C131.387 235.813 135.016 235.636 135.9 236.219C136.784 236.802 156.631 248.959 158.825 249.66C171.014 253.485 184.71 232.938 178.37 225.32C175.665 222.045 168.165 214.925 156.984 195.799L107.997 194.738Z" fill="#A7CAF0"/>
<mask id="mask2_1518_433" style="mask-type:luminance" maskUnits="userSpaceOnUse" x="93" y="194" width="87" height="75">
<path d="M107.996 194.737C104.236 203.907 97.8368 229.033 93.1143 262.314C93.1143 262.314 114.317 261.004 124.711 268.785C125.006 268.294 130.207 238 130.796 236.906C131.386 235.812 135.015 235.636 135.899 236.218C136.783 236.801 156.63 248.958 158.824 249.659C171.013 253.484 184.709 232.937 178.369 225.319C175.664 222.044 168.164 214.924 156.983 195.798L107.996 194.737Z" fill="white"/>
</mask>
<g mask="url(#mask2_1518_433)">
<path d="M179.089 208.859H175.716V212.233H179.089V208.859Z" stroke="white" stroke-width="0.49125" stroke-linecap="round" stroke-linejoin="round"/>
<path d="M162.655 208.86H159.282V212.234H162.655V208.86Z" stroke="white" stroke-width="0.49125" stroke-linecap="round" stroke-linejoin="round"/>
<path d="M146.228 208.859H142.854V212.233H146.228V208.859Z" stroke="white" stroke-width="0.49125" stroke-linecap="round" stroke-linejoin="round"/>
<path d="M129.801 208.859H126.428V212.233H129.801V208.859Z" stroke="white" stroke-width="0.49125" stroke-linecap="round" stroke-linejoin="round"/>
<path d="M113.366 208.859H109.993V212.233H113.366V208.859Z" stroke="white" stroke-width="0.49125" stroke-linecap="round" stroke-linejoin="round"/>
<path d="M96.9397 208.859H93.5664V212.233H96.9397V208.859Z" stroke="white" stroke-width="0.49125" stroke-linecap="round" stroke-linejoin="round"/>
<path d="M179.089 229.702H175.716V233.075H179.089V229.702Z" stroke="white" stroke-width="0.49125" stroke-linecap="round" stroke-linejoin="round"/>
<path d="M162.655 229.702H159.282V233.075H162.655V229.702Z" stroke="white" stroke-width="0.49125" stroke-linecap="round" stroke-linejoin="round"/>
<path d="M146.228 229.702H142.854V233.075H146.228V229.702Z" stroke="white" stroke-width="0.49125" stroke-linecap="round" stroke-linejoin="round"/>
<path d="M129.801 229.702H126.428V233.075H129.801V229.702Z" stroke="white" stroke-width="0.49125" stroke-linecap="round" stroke-linejoin="round"/>
<path d="M113.366 229.702H109.993V233.075H113.366V229.702Z" stroke="white" stroke-width="0.49125" stroke-linecap="round" stroke-linejoin="round"/>
<path d="M96.9397 229.702H93.5664V233.075H96.9397V229.702Z" stroke="white" stroke-width="0.49125" stroke-linecap="round" stroke-linejoin="round"/>
<path d="M179.089 250.551H175.716V253.924H179.089V250.551Z" stroke="white" stroke-width="0.49125" stroke-linecap="round" stroke-linejoin="round"/>
<path d="M162.655 250.551H159.282V253.924H162.655V250.551Z" stroke="white" stroke-width="0.49125" stroke-linecap="round" stroke-linejoin="round"/>
<path d="M146.228 250.551H142.854V253.924H146.228V250.551Z" stroke="white" stroke-width="0.49125" stroke-linecap="round" stroke-linejoin="round"/>
<path d="M129.801 250.551H126.428V253.924H129.801V250.551Z" stroke="white" stroke-width="0.49125" stroke-linecap="round" stroke-linejoin="round"/>
<path d="M113.366 250.551H109.993V253.924H113.366V250.551Z" stroke="white" stroke-width="0.49125" stroke-linecap="round" stroke-linejoin="round"/>
<path d="M96.9397 250.551H93.5664V253.924H96.9397V250.551Z" stroke="white" stroke-width="0.49125" stroke-linecap="round" stroke-linejoin="round"/>
<path d="M106.227 196.749H99.4873V203.489H106.227V196.749Z" stroke="white" stroke-width="0.49125" stroke-linecap="round" stroke-linejoin="round"/>
<path d="M123.061 196.749H116.321V203.489H123.061V196.749Z" stroke="white" stroke-width="0.49125" stroke-linecap="round" stroke-linejoin="round"/>
<path d="M139.894 196.749H133.154V203.489H139.894V196.749Z" stroke="white" stroke-width="0.49125" stroke-linecap="round" stroke-linejoin="round"/>
<path d="M156.728 196.749H149.988V203.489H156.728V196.749Z" stroke="white" stroke-width="0.49125" stroke-linecap="round" stroke-linejoin="round"/>
<path d="M173.562 196.749H166.822V203.489H173.562V196.749Z" stroke="white" stroke-width="0.49125" stroke-linecap="round" stroke-linejoin="round"/>
<path d="M106.227 217.598H99.4873V224.338H106.227V217.598Z" stroke="white" stroke-width="0.49125" stroke-linecap="round" stroke-linejoin="round"/>
<path d="M123.061 217.598H116.321V224.338H123.061V217.598Z" stroke="white" stroke-width="0.49125" stroke-linecap="round" stroke-linejoin="round"/>
<path d="M139.894 217.598H133.154V224.338H139.894V217.598Z" stroke="white" stroke-width="0.49125" stroke-linecap="round" stroke-linejoin="round"/>
<path d="M156.728 217.598H149.988V224.338H156.728V217.598Z" stroke="white" stroke-width="0.49125" stroke-linecap="round" stroke-linejoin="round"/>
<path d="M173.562 217.598H166.822V224.338H173.562V217.598Z" stroke="white" stroke-width="0.49125" stroke-linecap="round" stroke-linejoin="round"/>
<path d="M106.227 238.439H99.4873V245.179H106.227V238.439Z" stroke="white" stroke-width="0.49125" stroke-linecap="round" stroke-linejoin="round"/>
<path d="M123.061 238.439H116.321V245.179H123.061V238.439Z" stroke="white" stroke-width="0.49125" stroke-linecap="round" stroke-linejoin="round"/>
<path d="M139.894 238.439H133.154V245.179H139.894V238.439Z" stroke="white" stroke-width="0.49125" stroke-linecap="round" stroke-linejoin="round"/>
<path d="M156.728 238.439H149.988V245.179H156.728V238.439Z" stroke="white" stroke-width="0.49125" stroke-linecap="round" stroke-linejoin="round"/>
<path d="M173.562 238.439H166.822V245.179H173.562V238.439Z" stroke="white" stroke-width="0.49125" stroke-linecap="round" stroke-linejoin="round"/>
<path d="M106.227 259.288H99.4873V266.028H106.227V259.288Z" stroke="white" stroke-width="0.49125" stroke-linecap="round" stroke-linejoin="round"/>
<path d="M123.061 259.289H116.321V266.029H123.061V259.289Z" stroke="white" stroke-width="0.49125" stroke-linecap="round" stroke-linejoin="round"/>
<path d="M139.894 259.289H133.154V266.029H139.894V259.289Z" stroke="white" stroke-width="0.49125" stroke-linecap="round" stroke-linejoin="round"/>
<path d="M156.728 259.288H149.988V266.028H156.728V259.288Z" stroke="white" stroke-width="0.49125" stroke-linecap="round" stroke-linejoin="round"/>
<path d="M173.562 259.289H166.822V266.029H173.562V259.289Z" stroke="white" stroke-width="0.49125" stroke-linecap="round" stroke-linejoin="round"/>
</g>
<path d="M129.186 145.6C134.288 138.9 141.382 135.33 152.975 141.461C152.975 141.481 137.366 148.83 129.186 145.6Z" fill="white"/>
<path d="M200.987 154.167C200.987 154.167 174.008 163.992 172.377 165.957C170.746 167.922 166.285 182.856 164.098 190.572C161.91 198.288 159.925 200.155 159.925 200.155C159.925 200.155 141.061 197.391 127.542 198.459C114.023 199.526 107.368 199.192 105.796 198.518C104.224 197.843 103.936 195.308 104.84 192.55C104.925 192.288 105.023 191.987 105.128 191.647C106.202 188.372 108.403 181.73 108.403 181.73C103.363 179.919 98.2131 178.432 92.9842 177.276C91.1967 176.89 89.3879 176.61 87.5674 176.437C92.037 170.378 96.8116 164.55 101.873 158.975C103.713 157.01 105.665 155.098 107.623 153.355C113.518 148.115 119.413 144.185 122.374 143.53C126.304 142.626 131.721 143.602 139.653 142.764C155.137 141.126 176.772 135.068 189.839 126.35C191.499 128.746 193.029 131.23 194.424 133.79C197.038 138.557 199.085 143.613 200.522 148.855C200.522 148.855 201.21 152.248 200.987 154.167Z" fill="#FED81D"/>
<path d="M115.831 157.75L108.384 181.762C103.344 179.952 98.1937 178.464 92.9648 177.308C94.9691 174.249 98.2572 172.245 102.135 173.49C108.41 175.54 109.189 158.222 115.831 157.75Z" fill="#FCC71F"/>
<path d="M194.384 133.836C183.033 134.445 164.327 143.982 156.041 155.549C146.321 169.121 132.336 167.339 125.858 157.75C121.038 150.643 115.83 151.547 107.604 153.387C113.499 148.147 119.394 144.217 122.354 143.562C126.284 142.659 131.701 143.635 139.633 142.796C155.117 141.159 176.752 135.1 189.819 126.382C191.473 128.783 192.996 131.272 194.384 133.836Z" fill="#FFE05C"/>
<path d="M116.826 154.527L115.83 157.75L108.383 181.762" stroke="#F7AD2B" stroke-width="0.49125" stroke-linecap="round" stroke-linejoin="round"/>
<path d="M138.86 214.525C144.005 215.11 149.206 214.951 154.305 214.054" stroke="#83ADDF" stroke-width="0.49125" stroke-linecap="round" stroke-linejoin="round"/>
</svg>
